<svg width="82" height="86" viewBox="0 0 82 86" fill="none" xmlns="http://www.w3.org/2000/svg">
<path d="M41 81C63.0914 81 81 63.0914 81 41C81 18.9086 63.0914 1 41 1C18.9086 1 1 18.9086 1 41C1 63.0914 18.9086 81 41 81Z" fill="white"/>
<path d="M81.0652 46.6947C80.3456 51.969 79.0543 55.4565 76.8 59.8313C72.0318 69.6865 59.7313 79.0255 48.6264 80.719C46.1239 81.1964 43.5638 81.436 40.9999 81.4345C35.1055 81.4411 29.1996 80.1254 23.9312 77.6544C23.5438 77.4732 23.3186 77.3517 23.1442 77.2658C21.4942 76.4792 18.8568 74.9016 17.4001 73.8193C14.2212 71.6844 9.5765 66.8591 7.69948 63.8993C6.85697 62.6786 6.0865 61.3645 5.82547 60.8506C5.56013 60.3781 5.40366 60.1263 5.33583 60.0025C5.33509 60.001 5.33435 59.9996 5.33361 59.9982C5.11211 59.6007 4.61068 58.5627 4.50477 58.3327C4.48889 58.2982 4.57334 58.5168 4.31682 57.9572C4.29465 57.907 4.32283 57.9499 4.10995 57.4769C4.04667 57.3564 3.35929 55.7647 3.19267 55.2959C2.56073 53.7691 1.49619 49.963 1.20578 48.0092C1.15408 47.7118 1.11975 47.5409 1.07042 47.2249C1.04492 47.0618 1.01594 46.8183 1.00887 46.7681C0.974151 46.5502 0.82638 45.5906 0.926359 45.9293C0.805771 44.923 0.825318 45.2202 0.808851 45.1992C0.696927 44.1095 0.700291 43.5761 0.653672 43.2904C0.611616 42.5283 0.590866 41.7686 0.591316 41C0.592066 36.3536 1.39151 31.7176 2.96485 27.3492C2.96098 27.3461 2.9571 27.343 2.95322 27.3398C3.51807 25.8484 3.71402 25.3402 4.10518 24.5168C4.3289 24.0021 4.56241 23.4941 4.80793 22.9882C11.1809 9.99834 24.9172 1.0901 39.2251 0.617382C39.8246 0.59469 39.9735 0.594216 40.9697 0.589193C40.9797 0.589186 40.9898 0.589182 40.9999 0.589181C42.0983 0.586223 43.6232 0.633059 45.0436 0.777538C46.3088 0.896152 48.1544 1.18595 49.5325 1.49138C49.8447 1.55882 50.0706 1.60481 50.1056 1.61283C50.3112 1.66069 50.3192 1.6729 50.5178 1.72089C50.7558 1.77861 51.042 1.84273 51.3171 1.91571C52.3423 2.18357 53.4363 2.53397 53.5645 2.57741C54.1771 2.78014 54.3063 2.84015 54.3566 2.85694C55.0309 3.09741 54.78 3.00049 54.948 3.06164C55.818 3.38861 56.4162 3.64462 57.5851 4.14313C57.5502 4.1364 57.5153 4.12973 57.4804 4.1231C58.3615 4.5286 57.7874 4.24385 57.9693 4.32259C58.0481 4.34297 59.9193 5.27651 60.0539 5.36476C60.5467 5.63199 60.5537 5.65196 60.5962 5.67498C60.7021 5.7289 61.9311 6.4205 62.5352 6.82199C63.2509 7.2917 62.3897 6.76837 62.5666 6.88636C62.5979 6.90419 63.3499 7.39002 63.4442 7.46485C63.5509 7.54386 62.9059 7.11669 62.9131 7.12719C62.9219 7.12958 63.9791 7.85903 63.7684 7.731C63.6043 7.61969 62.151 6.66007 61.8263 6.48178C61.7738 6.45099 61.8654 6.52134 61.819 6.49385C61.6584 6.34062 58.1116 4.45654 57.9253 4.42219C58.1173 4.50471 58.3083 4.58864 58.499 4.67415C58.2492 4.55295 57.9982 4.43437 57.7457 4.31825C58.1071 4.47839 58.4649 4.64322 58.8225 4.81445C58.3211 4.5003 56.6813 3.82649 56.6019 3.82818C56.5688 3.82447 57.5517 4.27759 56.62 3.89686C56.7596 3.95877 56.8994 4.02174 57.0384 4.08532C57.3292 4.20676 57.6184 4.33152 57.9059 4.45959C57.717 4.3688 57.5272 4.27942 57.3367 4.19149C57.4086 4.21982 57.4805 4.24835 57.5522 4.27709C58.0911 4.51448 58.6241 4.76345 59.153 5.02483C59.422 5.16421 59.3612 5.14459 59.5452 5.24186C61.8154 6.49756 60.3494 5.65422 61.814 6.51335C62.0188 6.64339 62.2228 6.77556 62.4253 6.90931C62.3641 6.84597 62.9969 7.25325 63.7526 7.76092C63.6588 7.70522 63.5648 7.64982 63.4707 7.59497C64.5833 8.30799 66.6513 10.0016 66.1094 9.52444C66.3434 9.71557 66.5749 9.90909 66.8046 10.1055C67.0044 10.2643 67.2027 10.4249 67.3995 10.5874C67.6653 10.8193 67.9279 11.0545 68.1875 11.2932C68.1864 11.2969 68.1852 11.3005 68.1841 11.3041C67.9767 11.1142 67.7675 10.9266 67.5562 10.7411C67.7078 10.8883 67.8582 11.0365 68.0073 11.1859C68.162 11.3238 68.3158 11.463 68.4685 11.6033C67.837 11.0049 68.6911 11.7706 68.8988 11.9558C69.4313 12.4611 69.7447 12.8109 69.9156 12.9877C69.9998 13.0669 70.951 14.0433 70.5618 13.6755C71.0408 14.1873 71.5064 14.7112 71.9585 15.2474C72.1319 15.4599 72.3029 15.6738 72.4719 15.8896C72.0888 15.4349 73.1452 16.7953 72.3505 15.8065C71.7504 15.0741 71.6048 14.8907 71.3108 14.5507C71.0436 14.2459 70.8933 14.0931 70.5948 13.7684C68.5753 11.597 66.7491 9.9947 64.4734 8.33625C64.0225 8.01036 63.601 7.72828 63.2908 7.52063C62.9397 7.28699 63.3881 7.56713 62.937 7.27468C62.4615 6.97009 62.3507 6.91656 62.2244 6.83733C62.1458 6.78836 61.8999 6.62518 61.6682 6.48637C60.7194 5.90598 59.269 5.16009 59.1259 5.09329C58.9794 4.98452 56.1157 3.68137 55.9655 3.65224C55.8914 3.62266 56.0597 3.64786 55.3994 3.43173C55.1971 3.35488 54.9936 3.27949 54.7901 3.20595C54.8253 3.21135 54.8607 3.2169 54.8961 3.22248C53.6817 2.8164 54.104 2.94463 52.925 2.56935C50.1121 1.65904 45.7823 0.880332 42.5493 0.803221C41.922 0.781585 41.6315 0.782446 40.9999 0.782862C40.906 0.783167 40.8047 0.783688 40.6938 0.784592C39.8963 0.774947 37.8286 0.874386 38.2799 0.884142C36.5185 0.984907 36.2398 1.0934 35.3614 1.17525C35.2564 1.19472 35.1515 1.2146 35.0467 1.23487C34.0942 1.36105 33.8034 1.4285 32.7795 1.63829C32.3373 1.73384 32.8411 1.59944 31.9562 1.82201C31.7861 1.8593 31.6164 1.89767 31.4471 1.93711C31.4851 1.92252 31.5232 1.90799 31.5613 1.8935C30.5821 2.13785 30.5175 2.16337 30.6345 2.14976C30.1605 2.27227 29.6898 2.40322 29.2225 2.54246C29.1664 2.56625 29.1104 2.59015 29.0545 2.61418C29.2006 2.35915 38.0159 0.506537 40.9999 0.79929C41.3334 0.798515 41.5887 0.80173 41.7455 0.80396C43.5575 0.807957 47.1807 1.1975 48.6146 1.51719C49.1864 1.63055 49.4415 1.69453 50.2703 1.88906C51.0964 2.08256 52.1372 2.36085 52.5693 2.49259C54.0721 2.78488 60.6205 5.70102 56.1466 3.77479C56.2734 3.83402 56.3999 3.89388 56.526 3.95436C58.3105 4.70468 57.6634 4.4306 59.1051 5.13866C59.7118 5.43552 61.1209 6.20889 61.0246 6.19613C59.9355 5.57286 58.7525 4.95843 57.7618 4.50507C57.6657 4.45654 56.4783 3.94463 55.8619 3.70137C55.3051 3.4812 55.7035 3.58986 54.4671 3.17525C53.5668 2.82072 53.0168 2.68708 52.7733 2.61469C52.3496 2.49194 52.3078 2.46258 51.8831 2.34004C51.4198 2.20779 51.0946 2.13644 51.0308 2.1199C50.4039 1.91579 47.0221 1.27166 46.8616 1.27642C46.9984 1.2935 47.1347 1.31121 47.2727 1.3299C46.3912 1.19116 46.5733 1.23994 46.3406 1.20911C46.1675 1.18604 45.9941 1.16407 45.8203 1.14321C45.8896 1.148 45.9589 1.15296 46.0281 1.15811C44.9799 1.03829 45.7772 1.12729 44.2915 0.991851C43.3433 0.912225 42.3629 0.867311 42.271 0.866054C42.2438 0.865522 42.5422 0.883667 42.1554 0.873063C41.8289 0.864518 41.3797 0.857846 40.9999 0.856762C40.6346 0.855299 40.3365 0.857645 40.2754 0.85272C39.9609 0.860482 39.9882 0.872655 39.9464 0.873787C39.7633 0.850906 36.6373 1.0617 36.0774 1.16503C34.5371 1.35349 32.8205 1.66136 31.1874 2.07582C31.0197 2.1184 31.1249 2.08375 30.9569 2.12704C30.683 2.19071 29.3084 2.59508 29.1076 2.66521C28.5937 2.81893 27.2667 3.27556 27.0623 3.36118C27.033 3.3725 27.4711 3.22171 26.9643 3.41263C26.4034 3.62821 26.7013 3.5013 26.6705 3.51245C25.5289 3.947 24.8267 4.26946 24.0713 4.62105C23.827 4.73502 23.3726 4.9413 23.033 5.11584C22.9939 5.13584 23.0761 5.10546 23.0377 5.12522C22.5246 5.38784 22.0421 5.62656 21.8226 5.74512C21.286 6.03692 21.5841 5.88855 21.5561 5.90374C21.2007 6.10146 20.7232 6.36863 20.196 6.68981C17.851 8.13486 16.0343 9.48147 13.8671 11.4513C13.5957 11.6996 13.2734 11.9943 13.233 12.0335C13.1079 12.1544 13.1498 12.1262 12.7913 12.4786C12.0378 13.2241 11.366 13.9429 10.678 14.7351C10.5396 14.8949 10.4735 14.9569 10.369 15.0796C10.0089 15.4843 8.89668 16.9532 8.85887 16.9632C8.24165 17.84 7.81735 18.4145 7.34526 19.1365C6.20707 20.8382 4.7122 23.6798 3.94768 25.5722C3.78247 25.9676 3.7009 26.152 3.61304 26.3742C3.43587 26.7671 2.64821 29.0848 2.62612 29.2131C2.55369 29.4536 2.54668 29.2931 2.23368 30.5502C2.04116 31.2863 2.05392 31.1941 2.01413 31.3463C1.71209 32.5307 1.53558 33.7098 1.54487 33.4846C1.29028 34.887 1.19973 35.8027 1.10242 36.3777C1.1179 36.3722 1.04656 37.0387 0.979253 37.8405C1.03064 37.0184 0.973125 37.1113 1.24702 35.133C1.25163 35.102 1.25321 35.1627 1.25782 35.1317C1.2987 34.8522 1.38702 34.2582 1.47519 33.7808C1.56394 33.3028 1.52199 33.5696 1.55796 33.3785C1.59165 33.2038 1.58045 33.2076 1.63119 32.9554C1.79767 32.1326 1.97033 31.4127 2.08871 30.9531C2.16348 30.6615 2.26001 30.3393 2.32314 30.1151C2.55636 29.2468 3.14358 27.4314 3.57317 26.3668C3.66114 26.145 3.63145 26.2407 3.82885 25.758C3.8525 25.7015 3.92541 25.493 4.10506 25.0711C4.28497 24.6499 4.4368 24.3295 4.5596 24.063C4.6631 23.8406 4.60937 23.929 4.82739 23.4753C4.94687 23.0619 7.32618 18.9453 7.52891 18.7679C7.73639 18.4606 7.84746 18.3221 7.97503 18.1349C7.99752 18.102 8.02585 18.0394 8.10458 17.9258C9.34277 16.0052 12.7224 12.2304 14.7492 10.5856C18.8782 7.0441 23.3316 4.50273 28.5465 2.78111C28.6391 2.74871 28.7318 2.71665 28.8247 2.68491C28.2944 2.8532 27.7687 3.03221 27.2482 3.22167C27.2429 3.21745 27.2376 3.21322 27.2323 3.209C26.5264 3.46831 26.6262 3.45034 26.6485 3.44939C26.3875 3.54544 26.1278 3.64413 25.8693 3.74543C25.653 3.84576 23.9451 4.56795 23.0954 5.00584C22.538 5.2821 21.8919 5.63733 21.6046 5.79645C20.9988 6.13202 21.0109 6.11628 20.9631 6.14237C20.8819 6.18695 20.0541 6.6837 19.4669 7.06031C18.6022 7.61922 18.4928 7.65846 17.3563 8.49391C15.8883 9.54853 14.3507 10.8396 12.9577 12.2016C13.2089 11.9278 11.9747 13.1635 11.449 13.75C8.14905 17.2461 4.98239 22.3402 3.31962 26.9224C3.0997 27.509 2.93778 27.9511 2.82755 28.2826C2.76815 28.4623 2.75381 28.5444 2.67226 28.7945C2.65859 28.8382 2.63507 28.8663 2.49138 29.3318C2.10301 30.4864 1.45879 33.4503 1.33692 34.2068C0.957427 36.4487 0.769386 38.723 0.771374 41C0.773096 42.8915 0.904227 44.7669 1.16797 46.6375C1.17781 46.7414 1.18805 46.8452 1.19868 46.9488C1.31089 47.735 1.90724 50.7975 2.36887 52.2556C3.0967 54.838 4.43951 57.9984 5.57505 60.0548C5.81761 60.5038 6.01735 60.8721 6.26103 61.2888C6.36598 61.4682 6.50579 61.6854 6.61819 61.8699C7.86265 63.9558 9.84603 66.5945 11.5286 68.3734C15.3209 72.4308 19.6638 75.5495 24.8101 77.8319C29.9002 80.0772 35.4562 81.2265 40.9999 81.2195C54.4103 81.3305 67.4949 74.1464 74.7005 62.9498C74.838 62.7386 74.8395 62.7545 74.9448 62.59C75.583 61.6272 76.8309 59.3733 77.3701 58.1858C77.8227 57.2528 78.4585 55.7319 78.5657 55.3903C77.2297 58.8251 75.3349 62.2672 73.0029 65.3127C72.8371 65.5292 72.8082 65.5497 72.7877 65.5762C72.4022 66.0627 72.6586 65.7659 72.0925 66.4655C71.9208 66.7156 70.0423 68.7624 70.2782 68.5307C69.8626 69.0573 66.4032 72.2295 65.6431 72.7311C65.4266 72.9005 65.5859 72.7884 65.5431 72.8222C65.3566 72.9685 65.2637 73.0233 65.0942 73.1504C64.6473 73.4943 63.4746 74.3246 63.2443 74.4704C62.728 74.8275 61.1191 75.8042 60.3881 76.1966C59.722 76.5625 59.8538 76.5058 59.2709 76.809C58.8084 77.0421 59.3112 76.7867 58.2695 77.2886C57.7587 77.5458 55.9184 78.3425 55.4589 78.5054C55.0036 78.6808 54.4937 78.8609 53.858 79.0765C52.9437 79.4008 50.9193 79.9766 49.9579 80.1836C49.9006 80.1968 49.7631 80.2383 49.6212 80.269C49.3273 80.3322 49.413 80.3009 49.1904 80.3461C48.98 80.4355 45.0948 81.0345 44.427 81.0376C43.97 81.0759 43.653 81.1035 43.3987 81.1186C43.1993 81.13 43.1759 81.1208 42.974 81.1307C42.9115 81.1339 42.3794 81.1684 41.8436 81.1786C41.6781 81.182 41.361 81.1863 40.9999 81.1849C40.2562 81.1849 39.341 81.1464 39.1925 81.1384C39.048 81.1315 39.2075 81.1477 38.779 81.1252C38.3877 81.1035 38.1326 81.0754 37.9109 81.0586C37.3962 81.0193 36.825 80.9732 36.2782 80.909C34.7158 80.7145 34.8037 80.6914 34.7087 80.6815C34.4495 80.6395 34.3442 80.6324 34.2592 80.6184C33.8994 80.5613 33.0287 80.3977 32.7114 80.3289C32.316 80.2458 32.1513 80.1987 31.7348 80.1012C31.4246 80.0282 30.797 79.8856 30.0948 79.6881C28.5156 79.2508 26.6679 78.5982 25.1904 77.9591C24.7483 77.7686 24.6858 77.728 24.5516 77.6681C23.8484 77.3497 23.4579 77.1669 23.2592 77.0697C21.8383 76.3946 19.4285 74.9508 18.2417 74.104C17.7428 73.7811 15.6505 72.2356 14.5619 71.2497C14.4358 71.139 14.5587 71.2371 14.4179 71.1146C14.0821 70.8203 14.1037 70.8582 13.9361 70.7057C13.8555 70.6318 13.6771 70.4573 13.446 70.2383C12.249 69.1006 11.4801 68.2629 10.9784 67.7015C6.13987 62.3071 2.85449 55.4274 1.58728 48.791C1.443 48.0548 1.27226 47.1307 1.14077 46.0041C1.14112 45.9688 1.14151 45.9335 1.14195 45.8982C1.13256 45.8592 1.12322 45.8202 1.11394 45.7812C0.967267 44.4984 0.922097 44.0171 0.865156 42.7016C0.860642 42.5889 0.869652 42.2436 0.838019 42.0303C0.832514 41.135 0.835137 41.1902 0.82827 41C0.826119 40.913 0.823368 40.7742 0.826535 40.47C0.837401 39.5013 0.889111 38.5646 0.968024 37.6293C1.01263 37.1158 0.881681 39.2746 0.890983 39.4108C0.882095 39.6362 0.861734 39.8705 0.856199 40.0886C0.847728 40.4172 0.847111 40.7414 0.84804 41C0.84887 41.2497 0.850741 41.4371 0.845795 41.5085C0.872096 42.3442 0.848248 41.3038 0.862187 41.4079C0.863092 41.9666 0.875403 42.5226 0.898937 43.0762C0.921049 43.3642 1.1734 46.4271 1.1988 46.2102C1.22445 46.4535 1.25228 46.6962 1.28228 46.9384C1.48222 47.9969 1.55951 48.6166 1.86357 50.0213C1.84502 49.9196 1.82684 49.8177 1.80906 49.7157C1.81286 49.7457 2.11406 50.971 1.98925 50.5371C2.3308 51.7843 2.2786 51.7471 2.64113 52.8475C2.85378 53.5039 2.70045 53.1188 3.10046 54.2867C3.34084 54.975 3.67588 55.8248 3.99395 56.575C4.06729 56.7484 4.09001 56.8282 4.15673 56.9822C4.22371 57.136 4.26611 57.2067 4.34919 57.392C4.5205 57.775 4.74549 58.2685 4.86123 58.504C4.96477 58.7151 5.11992 59.0134 5.38208 59.5146C6.31803 61.2541 6.03911 60.7275 6.18405 61.0039C6.34833 61.2966 6.4822 61.4965 6.8309 62.0674C6.86605 62.1246 6.76543 61.9827 6.88077 62.1679C6.97464 62.3168 7.029 62.3873 7.34745 62.8747C7.44189 63.0898 9.55355 66.0083 9.93543 66.4052C10.4597 67.0624 11.701 68.4651 12.318 69.0792C12.5525 69.3188 12.8129 69.565 13.0685 69.8129C13.9105 70.6395 15.3278 71.8921 16.5177 72.8C17.5733 73.6387 19.5349 74.9649 20.1845 75.3198C21.8079 76.2896 22.2263 76.4875 22.3483 76.5603C22.6897 76.7395 22.8532 76.8121 23.2896 77.0276C28.241 79.56 35.2944 81.2259 40.9999 81.1363C41.7728 81.1364 42.5118 81.1146 43.2191 81.076C57.1012 80.4477 70.3069 71.8768 76.639 59.4704C76.652 59.4352 76.6649 59.4001 76.6778 59.3649C75.9275 60.8234 74.9243 62.4746 73.9974 63.8016C72.7887 65.5953 70.7106 68.0503 69.5561 69.1389C70.0081 68.6821 70.7251 67.9183 70.6989 67.9199C69.9261 68.7702 69.1173 69.5872 68.2749 70.3683C68.3052 70.3505 68.3355 70.3328 68.3657 70.3149C67.4904 71.1358 66.5544 71.9323 65.6046 72.6722C65.4394 72.8006 65.5609 72.7154 65.4165 72.8267C65.2547 72.9507 65.3601 72.8611 65.3298 72.8842C64.9197 73.1965 64.7975 73.2923 64.7471 73.3299C64.6167 73.4248 64.7149 73.3466 64.3366 73.6169C63.6334 74.1164 63.1252 74.4682 63.2777 74.3317C63.0466 74.4865 62.8138 74.6389 62.5794 74.789C62.5231 74.8347 62.4666 74.8803 62.4101 74.9258C60.9414 75.8063 60.267 76.2241 59.409 76.6233C59.1353 76.773 58.8595 76.9196 58.5817 77.0631C58.4196 77.1331 58.2579 77.2017 58.0955 77.2693C58.0676 77.2903 58.0396 77.3112 58.0116 77.3321C56.4872 78.044 54.8199 78.704 53.2871 79.1935C52.2175 79.5301 51.9602 79.5981 50.9977 79.8516C48.855 80.3698 50.986 79.8598 49.1905 80.2423C49.286 80.2313 49.3814 80.2199 49.4768 80.2082C49.1793 80.2754 48.8829 80.3389 48.5858 80.399C48.3771 80.4318 48.1679 80.4629 47.9583 80.4925C47.0371 80.69 46.4323 80.7356 46.3056 80.7533C46.204 80.7644 45.8537 80.8444 44.7473 80.9318C45.2075 80.9207 43.9054 81.0066 43.7995 81.0084C43.6992 81.0194 42.4299 81.0955 41.9132 81.1007C41.7009 81.1054 41.3625 81.1091 40.9999 81.1073C40.6681 81.1059 40.3182 81.0999 40.029 81.093C39.495 81.0792 39.5494 81.0887 39.5103 81.088C38.8547 81.0621 39.2675 81.0721 38.7919 81.0479C38.3151 81.0217 37.9468 81.0015 37.8445 80.9929C37.7931 80.9884 37.9658 80.9926 37.7304 80.973C37.1013 80.9233 35.9536 80.8061 35.2377 80.6991C34.9841 80.6627 34.6634 80.6052 34.3799 80.5577C33.9455 80.4846 33.7418 80.4573 33.4911 80.4099C33.4038 80.393 32.851 80.273 32.1609 80.12C32.0301 80.091 31.6367 80.0383 31.1427 79.8624C31.102 79.8592 31.0612 79.8561 31.0205 79.8528C28.7271 79.2626 28.134 78.9549 27.1283 78.6521C25.5232 78.0358 26.6336 78.4372 26.4579 78.3679C26.3446 78.323 25.8237 78.1195 25.7674 78.095C25.6671 78.053 25.6867 78.0544 25.5767 78.0086C23.5672 77.1411 24.4578 77.5303 23.8242 77.2501C22.3331 76.5442 21.21 75.9174 23.7677 77.2123C23.7693 77.2091 23.7708 77.206 23.7723 77.2028C23.1275 76.9125 21.5502 76.0655 22.086 76.3312C22.4834 76.5888 26.345 78.3569 24.1645 77.3426C23.6734 77.1071 23.4088 77.0006 22.5799 76.5462C22.0278 76.2547 21.9317 76.2429 21.2001 75.8154C21.3156 75.894 21.4315 75.972 21.5479 76.0495C20.5284 75.5042 19.3289 74.7302 18.5932 74.236C18.3396 74.0726 17.4228 73.4859 17.6605 73.5892C17.2352 73.312 15.3618 71.8302 15.0327 71.5315C14.9542 71.4593 14.8137 71.4086 13.6828 70.3557C13.6066 70.28 13.5308 70.2039 13.4553 70.1276C14.4918 71.0871 12.6849 69.3679 13.1958 69.8139C13.3499 69.9853 14.1659 70.752 14.2989 70.8736C14.5222 71.0855 13.8263 70.4887 14.7048 71.2585C15.2865 71.7109 13.6966 70.3331 13.9686 70.5119C12.8326 69.4845 12.753 69.346 12.5065 69.1027C11.4728 68.0413 10.8486 67.3466 9.9646 66.2636C9.73157 66.0135 11.3607 67.9522 11.5927 68.1657C10.7909 67.334 12.125 68.809 12.742 69.3788C12.7853 69.4351 12.8287 69.4913 12.8723 69.5474C12.0979 68.7768 11.3712 67.9965 10.6581 67.1829C10.6147 67.1273 10.5715 67.0716 10.5284 67.0157C10.69 67.1968 10.8533 67.3764 11.0181 67.5544C10.4337 66.8711 10.7599 67.3014 10.0114 66.3652C9.97978 66.3432 9.94814 66.3212 9.91651 66.299C9.1931 65.4058 8.50815 64.4818 7.86366 63.5295C7.49434 63.0572 6.34369 61.1653 6.58225 61.4955C6.13104 60.7261 6.67539 61.6837 6.24862 60.9645C6.06296 60.6515 5.71901 60.0266 5.64429 59.8682C5.69975 59.9235 6.21753 60.8552 6.39845 61.1217C6.23741 60.9856 4.03311 56.5579 4.29204 56.9234C4.13965 56.5587 4.1931 56.7329 3.9185 56.0767C3.12879 54.2398 2.26963 51.2616 1.90946 49.6974C2.31111 51.5404 2.50038 52.0727 2.93822 53.4507C3.12149 54.3677 5.41944 59.5184 4.8944 58.3735C4.98763 58.5588 5.08224 58.7433 5.17823 58.9269C5.26475 59.1178 5.35277 59.3079 5.44225 59.4973C5.16871 58.9752 4.90548 58.4443 4.65576 57.9113C4.6037 57.7802 4.55233 57.6489 4.50165 57.5173C4.46951 57.4605 4.4375 57.4037 4.40562 57.3467C4.30307 57.1203 4.20255 56.8928 4.10411 56.6641C4.13792 56.7258 4.17189 56.7872 4.206 56.8486C4.05497 56.4954 3.91045 56.1434 3.77006 55.787C3.7994 55.8862 3.82913 55.9853 3.85923 56.0843C3.19597 54.407 3.4289 54.9703 3.10963 54.0242C2.87404 53.3155 3.24978 54.5214 2.75693 53.0179C2.2309 51.2609 2.56267 52.4138 1.98153 50.1105C1.96921 50.0782 1.95694 50.0459 1.9447 50.0135C1.83204 49.5026 1.72906 48.9872 1.63708 48.4745C1.64417 48.5435 1.65143 48.6124 1.65887 48.6812C1.44826 47.6227 1.23591 46.1486 1.22087 45.7898C1.34522 46.8778 1.39397 46.8579 1.3591 46.5769C1.31951 46.2679 0.964394 43.6421 0.97931 41C0.9664 38.7123 1.21723 36.442 1.32566 35.669C1.61588 33.5395 1.9706 31.9517 2.48 30.0555C2.0249 31.3153 1.20047 35.9244 1.16727 36.8185C1.15777 36.9063 1.1209 36.8775 1.11096 37.4422C1.01195 38.5178 0.95318 39.7175 0.955747 41C0.957474 41.8819 0.987187 42.7784 1.04861 43.707C1.03348 43.6383 1.01853 43.5695 1.00375 43.5006C0.946932 42.3066 0.912488 41.1882 0.928506 41C0.931145 40.9684 0.935183 40.9638 0.941089 40.9903C0.941155 40.7106 0.944088 40.4315 0.949861 40.1532C0.942824 40.153 0.935786 40.1529 0.928748 40.1527C0.937463 39.7328 0.952594 39.3151 0.974165 38.8976C0.981195 38.898 0.988225 38.8983 0.995254 38.8987C1.01327 38.5502 1.03574 38.2028 1.0626 37.8567C1.0584 37.8201 1.05425 37.7835 1.05015 37.7469C1.10353 36.7093 1.62542 33.1952 1.42303 34.7448C1.49895 34.2605 1.58356 33.7791 1.67667 33.3008C1.67131 33.3014 1.66596 33.3019 1.6606 33.3025C1.69995 33.0966 1.74078 32.8917 1.78371 32.6849C1.77395 32.7537 1.76436 32.8226 1.75496 32.8915C1.94083 31.9422 2.1851 31.0697 2.33694 30.4525C2.22375 30.855 2.11745 31.2572 2.01737 31.6613C2.20053 30.887 2.59633 29.4619 2.63883 29.3393C2.75561 28.9567 2.83015 28.7552 2.96733 28.3423C3.09258 27.9697 3.06879 28.0189 3.09256 27.9496C3.81498 25.9578 3.58978 26.7351 3.90433 25.7963C3.95075 25.7016 3.99752 25.6071 4.04464 25.5129C4.09327 25.3819 4.14315 25.2499 4.19344 25.1187C4.44271 24.5432 4.70442 23.976 4.98012 23.4136C4.88029 23.5978 4.78236 23.7819 4.68568 23.967C5.0828 23.1168 5.30624 22.7374 5.34674 22.6565C5.46564 22.4285 5.51123 22.3196 5.54835 22.2492C7.41994 18.9129 6.28456 20.9393 7.3175 19.3326C7.67501 18.753 7.28517 19.3209 7.21967 19.3941C7.71867 18.638 7.87307 18.4004 8.42871 17.6215C8.57411 17.4195 8.73992 17.2094 8.83382 17.0837C8.91476 16.9745 9.16337 16.6289 9.3646 16.3716C9.69897 15.942 10.1589 15.3823 10.6463 14.8183C11.0445 14.3438 12.3206 12.9379 13.285 12.0308C13.6942 11.6416 13.6057 11.7388 13.712 11.639C13.7562 11.5975 14.0729 11.2916 14.3438 11.0512C16.5486 9.08437 19.0357 7.3263 21.6352 5.89162C23.4647 4.87942 25.4024 3.99113 27.3755 3.27988C27.7947 3.12992 27.5751 3.21602 27.7586 3.15152C27.8221 3.13048 27.8921 3.088 28.5493 2.87662C28.7871 2.80127 28.5167 2.89768 28.7503 2.82281C28.8641 2.78768 28.9093 2.75705 29.5745 2.55498C30.7882 2.19272 31.4581 2.05826 31.5663 2.02928C31.7732 1.97894 31.7105 1.98438 31.9857 1.92032C33.3354 1.61063 34.4731 1.41116 35.6923 1.24738C36.2616 1.11831 40.22 0.857296 40.442 0.902484C40.9014 0.901066 40.5283 0.919984 40.9999 0.919889C41.0309 0.919988 41.0655 0.920055 41.1042 0.920115C41.2803 0.915905 41.4562 0.91283 41.6319 0.910886C41.4216 0.904968 41.211 0.900669 40.9999 0.898001C40.9309 0.897129 40.862 0.896432 40.7931 0.895908C40.8613 0.896087 40.9303 0.896322 40.9999 0.896638C41.7165 0.898964 42.4833 0.915836 42.9972 0.94212C43.1017 0.94502 44.0688 1.01086 44.5568 1.05635C44.3485 1.04152 44.1399 1.02828 43.9309 1.01665C44.0045 1.02492 44.0781 1.0334 44.1516 1.04208C45.1281 1.11302 46.1702 1.23276 47.1622 1.38702C47.5228 1.44387 47.4 1.4312 47.7638 1.49229C49.8681 1.88409 49.3533 1.74426 51.3377 2.29853C50.6718 2.09177 48.1841 1.57397 47.8169 1.52959C47.5636 1.4812 46.5832 1.2866 46.938 1.38886C44.9016 1.11609 46.6767 1.30484 44.764 1.10502C44.8016 1.11447 44.8391 1.12397 44.8767 1.13352C44.2107 1.07366 43.7151 1.04385 43.3071 1.00992C43.2069 1.02344 42.1021 0.959542 40.9999 0.960109C40.5078 0.95884 40.0228 0.967531 39.6375 0.981178C37.8315 1.04004 35.799 1.25817 34.0364 1.57297C33.4291 1.68043 33.0866 1.74084 33.0109 1.75569C32.9008 1.77781 32.5899 1.85247 32.3696 1.9013C31.5408 2.05984 29.0674 2.73206 28.4745 2.97878C32.508 1.64933 36.7486 0.978059 40.9999 0.979612C41.772 0.97966 42.5344 1.00127 43.3003 1.04462C42.6803 0.937033 47.7193 1.44321 47.967 1.56962C48.2013 1.61169 48.0024 1.58604 48.0719 1.59897C48.5901 1.69526 49.0302 1.77169 49.1952 1.80607C49.3204 1.83237 49.5722 1.89064 50.0144 1.99196C50.0955 2.01064 50.1195 2.00925 50.2066 2.02967C50.7813 2.16499 51.3475 2.31161 51.9194 2.4733C51.9542 2.48319 52.0956 2.53363 52.2393 2.57566C52.3834 2.6177 52.5283 2.65086 52.5646 2.66177C53.0174 2.79624 53.7927 3.05576 54.217 3.20623C54.3646 3.25805 54.2648 3.21508 54.43 3.27373C54.936 3.45666 54.7661 3.40756 55.391 3.6414C55.5998 3.72125 55.591 3.70464 55.9875 3.86538C56.2678 3.98022 56.2299 3.98648 56.2741 4.00528C56.3351 4.02816 57.3046 4.42638 57.6085 4.5837C56.9151 4.30387 58.3499 4.92669 58.2856 4.88697C58.658 5.06949 59.0279 5.25801 59.3939 5.45181C59.521 5.51367 59.6477 5.57618 59.7741 5.63936C61.2386 6.44676 62.1177 6.96805 63.4792 7.88972C63.5484 7.92979 64.6739 8.73842 64.6155 8.70824C63.9423 8.22464 63.2563 7.76091 62.8205 7.45864C62.0688 7.01388 62.0745 6.97412 60.8547 6.26813C60.4438 6.03541 60.4093 6.02828 60.3619 6.00161C58.7665 5.09043 56.0707 3.90922 54.9096 3.47796C54.5825 3.36137 55.7489 3.80561 55.2937 3.63765C55.0843 3.42729 48.9594 1.71059 50.9225 2.23007C50.7185 2.17881 50.5139 2.12912 50.3087 2.08101C50.0989 2.05399 49.0737 1.82548 49.1949 1.8264C49.096 1.81129 48.9978 1.79672 48.8996 1.78253C48.7068 1.74863 48.479 1.70647 48.1582 1.64987C47.2989 1.45918 43.4 0.957388 40.9999 1.01044C39.9805 1.01009 39.2462 1.04836 39.1294 1.05408C39.1207 1.06071 39.1121 1.06734 39.1035 1.07397C39.7345 1.04588 40.3655 1.03167 40.9999 1.03174C43.6269 1.03504 46.2573 1.26568 49.0778 1.85604C48.9774 1.82946 48.8774 1.80338 48.7769 1.77761C50.1758 2.06171 51.5585 2.4212 52.9143 2.85282C51.478 2.40043 49.1351 1.84757 47.5741 1.59537C47.296 1.54822 47.5013 1.5736 47.4375 1.56218C47.2705 1.53328 47.0885 1.51547 46.4893 1.43331C45.8897 1.34339 44.3707 1.18423 44.2321 1.17969C43.9649 1.15746 43.2327 1.12462 42.7774 1.10623C42.1771 1.08177 42.5798 1.088 42.4593 1.08304C41.9603 1.06414 41.5104 1.06215 41.1164 1.06028C41.0799 1.06011 41.041 1.05991 40.9999 1.05973C40.3815 1.05307 39.2959 1.07364 38.9186 1.12056C39.3321 1.10051 39.7463 1.08679 40.1625 1.0794C37.9128 1.14395 36.1457 1.28581 33.9618 1.69082C33.4702 1.80845 35.2769 1.48909 33.7516 1.76986C34.0281 1.71865 34.3056 1.67028 34.5841 1.6248C34.6483 1.60778 34.7127 1.59091 34.7771 1.57419C35.2572 1.50377 35.7356 1.4425 36.2186 1.3895C36.0804 1.40014 35.9423 1.41147 35.8044 1.42352C37.5119 1.19061 39.249 1.10793 39.8468 1.12577C39.8819 1.11718 39.9171 1.10864 39.9523 1.10014C40.2775 1.0936 40.6369 1.08866 40.9999 1.08813C42.4177 1.08067 43.8563 1.17364 43.5001 1.18302C43.5758 1.18546 43.6515 1.18811 43.7272 1.19098C44.6893 1.27002 44.2791 1.22397 44.6401 1.25221C44.741 1.25027 46.6084 1.47853 45.7798 1.39285C47.5909 1.63751 47.0354 1.53755 47.5357 1.61018C48.6919 1.80408 50.7501 2.25977 49.8798 2.09059C50.0497 2.13039 50.2191 2.17127 50.3881 2.21322C50.9487 2.32358 51.4917 2.49467 52.0848 2.67532C52.2866 2.73416 52.4877 2.79455 52.6882 2.85648C52.8248 2.88972 52.962 2.92396 53.0991 2.95895C54.9677 3.61767 54.4027 3.32873 55.2226 3.72424C55.089 3.67894 54.9551 3.63435 54.8209 3.59045C54.5066 3.47701 54.1924 3.3681 53.8756 3.26271C55.1472 3.69893 56.3992 4.20106 57.622 4.76558C59.1574 5.51157 60.0366 5.93658 61.6537 6.92758C61.8069 7.01786 61.9595 7.10915 62.1114 7.20144C61.9463 7.12365 61.3654 6.75342 62.4467 7.44494C62.5318 7.51503 61.7989 7.05201 61.4648 6.84199C61.3847 6.79054 62.0838 7.19875 61.3041 6.72971C60.7684 6.41939 61.74 6.9857 60.1266 6.06947C60.1852 6.10563 60.2437 6.14194 60.3022 6.17839C60.1264 6.08061 59.9496 5.98405 59.7728 5.88923C59.6193 5.79777 59.465 5.70729 59.31 5.61779C58.8959 5.41929 58.66 5.30871 57.7123 4.86136C57.9721 4.97738 57.6307 4.79656 57.1553 4.58548C57.1529 4.59083 57.1505 4.59619 57.1481 4.60154C55.991 4.10332 56.3993 4.25843 55.4226 3.88318C55.3267 3.84089 55.2306 3.79897 55.1343 3.7574C54.599 3.55694 52.6036 2.91713 52.974 3.01149C52.4071 2.85679 51.2204 2.51165 50.7786 2.38201C50.743 2.37903 50.7075 2.3761 50.6719 2.37322C50.4348 2.31527 50.197 2.25945 49.9583 2.20578C49.8261 2.17176 49.6936 2.13841 49.5609 2.10571C49.3905 2.07198 49.2197 2.03934 49.0486 2.0078C48.9473 1.98104 48.8465 1.95479 48.7451 1.92886C48.471 1.88197 48.1961 1.8379 47.9203 1.79666C47.7531 1.76262 47.5855 1.72962 47.4175 1.69768C47.3959 1.6989 45.7306 1.4628 45.2569 1.41503C45.1158 1.4036 44.9761 1.39305 44.8364 1.38325C44.7689 1.37097 44.7012 1.35885 44.6335 1.3469C44.5291 1.34212 44.4247 1.33774 44.3201 1.33376C44.0806 1.30932 43.8403 1.287 43.5994 1.26683C42.611 1.236 42.5869 1.21953 42.3614 1.20984C42.1124 1.20094 41.5023 1.19268 40.9999 1.19864C40.6648 1.20186 40.3805 1.20918 40.2856 1.21049C40.0486 1.21393 39.9341 1.20679 39.7434 1.21158C36.5966 1.34935 37.8931 1.33702 37.2643 1.38084C36.9275 1.41479 36.6844 1.43096 36.3847 1.46642C35.8687 1.50362 33.3044 1.93893 33.1633 1.98638C32.9497 2.02801 33.4438 1.88051 32.7515 2.03506C32.7311 2.05737 31.2505 2.37509 31.9473 2.24747C31.3403 2.38567 30.7356 2.53845 30.1342 2.7057C30.2093 2.71464 29.4669 2.90113 28.6691 3.16385C27.5313 3.50743 25.0691 4.54036 25.1516 4.48888C24.8933 4.6085 24.6366 4.73077 24.3815 4.85567C22.6117 5.66116 20.9437 6.59461 19.3263 7.64762C14.5089 10.7499 10.0723 15.2975 7.10138 20.1681C6.95767 20.4018 6.97027 20.3633 6.86821 20.532C6.31483 21.4089 5.05731 23.7979 4.49809 25.139C4.31183 25.5666 4.21849 25.7718 4.16179 25.9081C3.97181 26.3711 4.02854 26.2666 3.94328 26.4809C3.79866 26.8164 3.14097 28.623 2.95679 29.2628C2.85971 29.5755 2.75926 29.9502 2.6535 30.3199C2.6444 30.3518 2.65106 30.2902 2.64338 30.3171C2.45724 30.9934 2.57699 30.5887 2.515 30.8179C2.08065 32.4476 1.7272 34.2285 1.50055 36.0444C1.44252 36.4965 1.36419 37.1906 1.33179 37.5782C1.31945 37.7267 1.34764 37.4608 1.30686 37.9742C1.29358 38.1502 1.27935 38.2098 1.26572 38.4091C1.21089 39.272 1.2341 39.5515 1.1925 40.2911C1.18901 40.5056 1.18697 40.7443 1.18748 41C1.18059 42.4438 1.31465 44.392 1.44664 45.4885C1.48139 45.7946 1.4938 45.944 1.53168 46.2344C1.5586 46.4405 1.61777 46.8001 1.66752 47.12C1.71727 47.4416 1.79088 47.9497 1.90877 48.5609C2.03027 49.2027 2.21809 50.0029 2.25274 50.1453C2.29375 50.3192 2.30261 50.4026 2.34539 50.5759C2.46863 51.101 2.86823 52.4941 3.0885 53.1543C3.31902 53.8674 3.46704 54.2905 3.55329 54.5307C3.63337 54.7524 3.73947 55.0093 3.77799 55.1102C3.83802 55.2675 3.84207 55.3086 3.91989 55.5077C4.04777 55.833 4.18762 56.1634 4.39346 56.645C8.09875 65.3272 14.8714 72.4157 23.0614 76.5487C23.9782 77.0059 24.4982 77.2546 25.8885 77.838C26.4536 78.0689 26.2109 77.9832 26.6547 78.1545C26.8532 78.2298 26.806 78.2027 27.0575 78.2968C28.1649 78.7146 29.4852 79.1297 29.9782 79.2677C30.174 79.3236 30.4004 79.3781 30.8049 79.4852C33.8115 80.2935 37.4791 80.8053 40.8339 80.8024C40.8884 80.8026 40.9437 80.8027 40.9999 80.8026C42.7768 80.815 45.3568 80.6244 47.3018 80.2999C52.8694 79.4523 58.5821 77.1207 62.8439 74.2698C69.3167 70.0174 74.4757 63.8696 77.545 56.7788C76.1273 60.1055 73.5195 64.3308 70.8178 67.3187C63.6579 75.5737 52.2802 80.8924 40.9999 80.777C40.27 80.7771 39.5484 80.7576 38.829 80.7189C34.6861 80.5356 29.5176 79.4091 25.3622 77.5798C25.1728 77.4987 24.7784 77.3355 24.3753 77.1486C24.2882 77.1125 23.2378 76.5946 22.8891 76.4099C23.2088 76.605 21.8486 75.8737 21.4361 75.6305C20.9114 75.3355 19.8186 74.7107 18.6578 73.9103C17.6079 73.1777 17.9086 73.3648 17.8497 73.3256C17.4849 73.0581 17.3496 72.9763 17.0713 72.7691C15.8251 72.052 10.5685 66.9724 9.46809 65.2346C9.14857 64.8172 9.14956 64.7977 9.07851 64.7032C8.89159 64.4519 8.62077 64.0972 8.3339 63.6846C7.81422 62.942 7.26444 62.0567 7.00677 61.6291C6.37735 60.619 5.29235 58.6275 4.67367 57.208C4.49664 56.8096 4.51795 56.8293 4.4396 56.6481C4.08299 55.8573 3.28078 53.7422 2.97973 52.7043C2.46489 51.033 2.05594 49.2717 1.76419 47.5181C1.75028 47.4059 1.73684 47.2935 1.72387 47.181C1.69152 47.0046 1.66089 46.8315 1.6311 46.6561C1.36777 44.7914 1.23098 42.8986 1.22859 41C1.22715 39.8567 1.27374 38.7297 1.36864 37.6081C1.38742 37.2671 1.59214 35.5663 1.64189 35.2888C1.67559 35.0556 1.69892 34.8232 1.75769 34.4759C1.84259 33.9909 1.78197 34.4499 1.91915 33.6591C1.95767 33.447 1.90856 33.6502 1.98875 33.225C1.99207 33.0789 2.63446 30.3727 2.69938 30.2337C2.76768 29.9939 2.84918 29.7864 2.86779 29.725C2.96497 29.4058 2.947 29.4153 3.01152 29.2011C3.20185 28.5652 3.49662 27.7529 3.53353 27.6523C3.95136 26.4198 4.89856 24.1796 5.5408 22.9732C5.6275 22.8056 5.62741 22.831 5.64285 22.8017C5.74298 22.6129 5.79341 22.4894 5.88865 22.31C6.39618 21.3395 7.28431 19.8717 7.90297 18.9619C7.97328 18.8567 8.11781 18.6313 8.24699 18.4454C8.98398 17.3994 8.75859 17.7489 8.79929 17.6885C8.90146 17.5497 9.07043 17.2985 9.34788 16.9328C10.0508 15.9821 11.526 14.2594 12.4188 13.3597C13.0821 12.6809 13.087 12.7062 13.1302 12.6614C13.2256 12.5687 13.481 12.3012 13.9376 11.8746C14.8216 11.06 14.733 11.1665 15.1046 10.841C15.1365 10.8144 15.0736 10.8521 15.4924 10.4982C16.2923 9.80287 18.2055 8.38489 19.1622 7.77607C19.5266 7.5371 19.6075 7.47416 19.9858 7.2367C20.5819 6.85306 21.9776 6.07661 22.0919 6.02209C22.123 6.00537 22.1873 5.95807 22.3704 5.86063C22.5719 5.75352 22.7739 5.65496 22.9254 5.57746C23.7856 5.12577 25.3049 4.4347 24.8967 4.65828C25.1766 4.52381 25.46 4.39186 25.7422 4.26439C27.6196 3.48679 29.4958 2.86693 31.4508 2.38224C31.8894 2.27389 32.2597 2.19708 32.6339 2.11644C33.0073 2.02596 34.6593 1.71481 34.9429 1.68064C35.4326 1.57718 38.2759 1.28479 38.6348 1.29081C39.3298 1.25091 39.9983 1.24989 40.2823 1.24223C40.5092 1.23638 40.2988 1.22947 40.7325 1.22297C40.8158 1.22195 40.9057 1.22133 40.9999 1.2212C41.7563 1.21669 42.7796 1.26562 42.9808 1.2774C43.0775 1.2838 42.8966 1.26031 43.8104 1.31923C44.3022 1.3537 44.5637 1.38621 44.7411 1.40239C44.797 1.40963 44.712 1.37994 45.6844 1.49095C46.3538 1.57169 46.6345 1.6255 46.7045 1.63477C46.8092 1.65008 47.0624 1.67557 47.4844 1.74488C48.4692 1.89704 50.2467 2.29039 51.1564 2.54107C51.333 2.58912 51.2779 2.55658 51.9792 2.75595C52.4794 2.90167 52.3886 2.88698 52.5751 2.94324C52.8689 3.03347 53.3167 3.15882 53.9621 3.38113C54.8285 3.53358 60.6099 6.25387 60.8376 6.53188C61.0291 6.64461 61.2508 6.77583 61.3424 6.83681C61.2589 6.79285 61.1752 6.7492 61.0913 6.70584C60.2549 6.20057 60.5847 6.41773 60.3587 6.29053C60.032 6.10212 58.781 5.44466 58.4674 5.3035C58.3569 5.25203 58.6037 5.38128 58.011 5.10331C57.3739 4.80878 57.0938 4.66745 56.8267 4.57896C55.9226 4.15429 55.0178 3.84024 56.0859 4.27642C56.7341 4.41256 62.3384 7.35283 63.3317 8.20291C64.2016 8.7858 65.7729 9.95973 66.744 10.8054C67.3276 11.2874 68.6827 12.5664 68.6112 12.5269C69.09 12.9972 68.5919 12.4906 68.6939 12.5877C68.9179 12.7805 70.3631 14.2988 70.616 14.6045C71.9276 16.0561 73.4328 18.0217 74.4339 19.6375C74.383 19.5651 74.3319 19.4928 74.2806 19.4207C74.0544 19.0596 72.9216 17.4337 72.7637 17.2732C74.4979 19.5908 75.9781 22.0981 77.1665 24.7374C77.1925 24.6677 78.5254 28.0047 78.5349 28.1803C78.5075 28.123 78.48 28.0659 78.4524 28.0088C77.792 26.091 77.8042 26.2815 77.2888 25.0201C77.0635 24.5131 77.1198 24.6715 77.0043 24.4241C75.8022 21.9864 77.0288 24.3634 76.0755 22.513C76.3526 23.0751 75.5537 21.5691 75.1546 20.9178C75.0804 20.7606 73.8615 18.8294 73.6935 18.6157C72.846 17.349 71.2066 15.3067 70.1759 14.1993C69.3668 13.324 68.8934 12.8688 68.106 12.1273C67.5034 11.5697 67.6804 11.7248 67.3938 11.4655C66.7878 10.9265 66.5646 10.7774 66.1892 10.4165C65.7621 10.0704 65.3278 9.73309 64.8865 9.40484C64.89 9.40017 64.8936 9.3955 64.8971 9.39083C64.6214 9.18208 64.3438 8.97752 64.0631 8.7762C63.9771 8.72173 63.8909 8.6676 63.8045 8.6138C62.9094 7.98101 63.2911 8.23295 63.1318 8.10287C62.9362 7.9696 62.7392 7.83803 62.541 7.70818C62.3802 7.61909 62.2188 7.53114 62.0569 7.44433C61.1623 6.88053 60.2449 6.35248 59.3092 5.8627C59.2513 5.8259 59.1933 5.78923 59.1352 5.7527C59.1305 5.75688 59.1259 5.76105 59.1213 5.76523C57.5284 4.94572 55.8827 4.236 54.1936 3.64077C53.7471 3.47468 56.4276 4.49487 56.616 4.606C57.7426 5.05003 60.5811 6.54454 60.5628 6.58685C61.2313 6.92948 63.1381 8.14525 63.6935 8.57861C62.8205 7.96506 61.9232 7.38701 61.0044 6.8464C61.0306 6.86985 61.0567 6.89334 61.0828 6.91685C59.948 6.22647 59.7751 6.13312 58.5446 5.54059C58.5476 5.53165 58.5506 5.5227 58.5537 5.51375C57.6912 5.11043 56.1636 4.39598 56.1024 4.42048C55.6358 4.22407 55.1645 4.03634 54.6888 3.85748C53.648 3.52167 55.2831 3.98446 51.1736 2.77049C50.8875 2.69456 50.9496 2.69893 50.5197 2.59226C50.3961 2.56504 49.6803 2.38783 48.3051 2.12625C48.0901 2.08617 48.0755 2.07445 47.8518 2.03393C47.3343 1.93684 46.2986 1.80752 46.7715 1.84682C44.7148 1.56334 45.5606 1.7091 44.9205 1.64533C44.494 1.6108 44.5812 1.60198 44.2109 1.575C43.7529 1.5511 44.0845 1.56231 42.2491 1.47991C42.4554 1.48515 42.6614 1.49197 42.8669 1.50036C42.7637 1.49092 42.6604 1.48188 42.557 1.47324C41.5076 1.4495 41.6052 1.44298 41.1076 1.46424C41.0715 1.46359 41.0356 1.46302 40.9999 1.46252C40.2749 1.45399 39.631 1.46435 38.6361 1.52312C36.6098 1.68016 37.6498 1.59588 35.3462 1.84902C34.9777 1.9071 34.6047 1.97126 34.2358 2.04026C33.6265 2.13775 34.1135 2.03078 33.2103 2.20254C33.922 2.0862 32.014 2.46402 31.7044 2.57736C31.6696 2.57972 31.6348 2.58212 31.6 2.58458C31.4003 2.63328 31.2025 2.68314 31.0026 2.73521C31.0032 2.73992 31.0038 2.74462 31.0044 2.74933C30.7378 2.81515 30.4723 2.88369 30.2078 2.95491C30.0109 3.0155 29.8147 3.07757 29.6192 3.14112C29.2934 3.22866 28.9661 3.32119 28.641 3.41771C28.4386 3.48354 28.2369 3.55095 28.0358 3.61994C28.1017 3.60452 28.1676 3.58927 28.2335 3.57418C27.9742 3.66013 27.7161 3.74869 27.4592 3.83985C27.7618 3.74435 27.577 3.81677 26.7813 4.12039C26.1291 4.37899 26.8492 4.05239 25.4612 4.64188C25.3667 4.68799 25.1916 4.75863 23.9062 5.37035C22.3731 6.12994 23.1152 5.75542 22.8421 5.89089C22.7886 5.91829 22.3304 6.16626 21.9027 6.4051C21.6599 6.54003 21.4245 6.66679 21.3927 6.68506C21.2443 6.77064 21.2059 6.80392 21.0016 6.92418C20.4831 7.22852 19.7928 7.65314 19.3014 7.97888C19.0775 8.12644 18.8722 8.27255 18.7732 8.3402C18.6197 8.44484 18.421 8.57175 18.2675 8.68004C17.6985 9.07672 16.8791 9.73673 16.6023 9.90564C16.0971 10.3409 15.0063 11.2131 15.1021 11.168C13.6888 12.2684 10.5222 15.8166 10.6184 15.7157C10.0048 16.5171 10.0471 16.4349 9.78562 16.7671C9.49716 17.1416 9.65192 16.9517 9.42463 17.2509C8.89705 17.9504 8.41164 18.6354 7.93318 19.3644C8.00341 19.2467 8.07425 19.1293 8.14571 19.0123C7.63916 19.7756 7.82085 19.5175 7.32738 20.3118C6.44513 21.7863 6.81531 21.1641 6.67143 21.3741C6.70806 21.3171 5.7382 23.0968 5.65595 23.2871C5.60186 23.3977 5.81734 22.9021 5.28055 24.0227C5.31499 23.964 5.34951 23.9055 5.38429 23.8468C5.12407 24.3473 4.51581 25.7625 4.4225 26.0038C4.37593 26.1135 4.09108 26.6896 3.92263 27.2542C3.89254 27.3186 3.86246 27.3835 3.83283 27.4477C3.61684 28.0603 3.4154 28.6803 3.22945 29.3053C3.18879 29.4012 3.14848 29.4973 3.10853 29.5937C3.04913 29.7913 2.99123 29.9895 2.93485 30.1884C2.98125 30.059 3.02829 29.9299 3.07596 29.8012C2.70329 31.0232 2.37931 32.5457 2.29766 32.7992C2.24662 33.0696 2.19928 33.3362 2.15423 33.6057C2.11093 33.7782 2.06875 33.9513 2.0277 34.1249C1.81966 35.3782 1.83324 35.3958 1.73484 36.2571C1.73074 36.2225 1.72668 36.1879 1.72267 36.1533C1.65339 36.7924 1.55311 37.946 1.50876 38.8718C1.48423 39.3081 1.45144 40.0576 1.45161 40.1617C1.45061 40.2274 1.46077 40.6596 1.46491 41C1.46696 41.2004 1.46579 41.368 1.452 41.4096C1.49004 42.9229 1.53207 43.5859 1.57742 44.1984C1.61028 44.5957 1.63539 44.7731 1.68312 45.2218C1.75207 45.8649 1.83542 46.5069 1.89107 46.873C1.92279 47.082 1.93819 47.1212 1.96139 47.2661C2.07569 47.9512 1.99729 47.5523 2.12749 48.2712C2.14008 48.3382 2.24708 48.8573 2.37483 49.4486C2.44302 49.7791 2.63486 50.6274 2.65557 50.7009C2.74208 51.029 2.68696 50.7638 2.97263 51.8935C2.96784 51.8597 2.96309 51.8259 2.95839 51.7921C3.36938 53.1703 3.44194 53.3895 3.52914 53.6666C3.54067 53.702 3.66172 54.0313 3.7312 54.229C3.84809 54.563 3.88842 54.7007 3.9152 54.7748C4.00827 55.0365 4.34977 55.9038 4.58076 56.4667C4.55001 56.3427 5.43288 58.2815 5.62923 58.7146C5.80511 59.0494 5.9856 59.3813 6.17061 59.7102C6.24622 59.863 6.32335 60.0163 6.40124 60.1686C6.45685 60.2568 6.51279 60.3446 6.56905 60.4323C6.82916 60.9182 7.09838 61.397 7.37912 61.8726C7.4086 61.8956 7.43811 61.9186 7.46763 61.9415C7.5482 62.073 7.62952 62.204 7.71159 62.3345C7.76802 62.4413 7.82495 62.5478 7.88237 62.6541C7.98966 62.8143 8.09803 62.9736 8.2076 63.1321C8.2405 63.1676 8.27344 63.2029 8.30645 63.2382C8.90814 64.0814 8.52156 63.705 9.76483 65.2406C9.94868 65.4867 10.1354 65.7306 10.3249 65.9724C10.5652 66.2236 10.9697 66.7331 11.3196 67.1238C11.5664 67.3989 11.5604 67.3771 11.9004 67.7485C12.2424 68.1183 12.2241 68.1109 12.2505 68.1398C12.5322 68.4388 12.7555 68.6536 12.9664 68.8686C12.9984 68.9008 13.0685 68.9915 13.3421 69.261C13.6167 69.5297 13.7922 69.6812 14.2102 70.0715C14.4251 70.2709 14.4807 70.3356 14.6738 70.5098C15.595 71.3406 16.6024 72.077 17.3084 72.6849C17.477 72.809 18.7284 73.6727 19.2745 74.0242C20.1201 74.5776 19.7881 74.3743 20.1267 74.5913C20.1763 74.6209 20.4368 74.7862 21.1685 75.2144C21.2997 75.2906 21.2729 75.2666 21.2918 75.2775C22.1441 75.7812 23.8507 76.6649 24.8454 77.0996C24.9339 77.1383 25.4058 77.3331 26.1916 77.6806C27.3781 78.1542 29.6405 78.9693 31.288 79.3378C31.5136 79.3944 31.787 79.4674 31.8876 79.4907C32.7569 79.6804 32.4379 79.6216 34.4107 80.0071C34.2508 79.9681 34.7205 80.0419 35.375 80.1361C36.3637 80.2712 35.6575 80.2002 36.4562 80.2953C36.4569 80.2895 36.4575 80.2837 36.4582 80.2779C38.2931 80.4841 38.6664 80.4825 40.5183 80.5236C40.667 80.5254 40.8317 80.5271 40.9999 80.5281C41.5882 80.5326 42.2109 80.5218 42.3342 80.5174C42.3966 80.5169 43.1195 80.4712 43.1915 80.4655C43.5848 80.4431 43.8064 80.4342 44.144 80.4081C45.2548 80.3267 46.5825 80.1227 46.3455 80.1882C46.6498 80.14 46.9495 80.0889 47.2546 80.0333C48.412 79.8852 49.2473 79.6501 49.4946 79.6319C49.6965 79.5805 49.8978 79.5274 50.0982 79.4729C54.9512 78.3361 59.5808 76.2592 63.6647 73.3985C63.8298 73.288 65.5701 71.9856 65.6495 71.9058C66.0523 71.5898 65.6513 71.9543 66.4521 71.2821C66.5338 71.1995 66.6151 71.1166 66.696 71.0333C67.6841 70.169 67.2136 70.5902 67.6048 70.2501C67.7638 70.103 67.707 70.1445 67.9215 69.9448C69.1057 68.8821 71.3142 66.4758 72.348 65.0764C72.5611 64.798 72.5345 64.8442 72.6003 64.7574C72.7807 64.5184 73.1237 64.0381 73.4663 63.5446C75.6406 60.5282 77.9472 55.7417 78.9471 52.1336C79.0187 51.8902 79.0358 51.8623 79.0828 51.6974C79.1482 51.4694 79.2785 50.9522 79.3392 50.7113C79.3971 50.4839 79.4397 50.3394 79.4983 50.0946C79.7707 48.9729 80.0423 47.4453 80.2192 46.2275C80.2397 46.1275 80.4214 44.8406 80.4213 44.8141C80.4484 44.6438 80.3766 45.7922 80.5553 43.9124C80.4234 45.5936 80.5416 45.0824 80.6834 42.8822C80.6358 43.9884 80.5436 45.0828 80.4048 46.1809C80.4084 46.183 80.412 46.1851 80.4157 46.1871C80.5615 45.1906 80.6748 44.2016 80.7437 42.672C80.7453 42.7197 80.7468 42.7673 80.7482 42.8149C80.7109 44.1684 80.543 45.7909 80.4135 46.8106C80.6494 45.3212 80.801 43.8112 80.8672 42.3029C80.8676 42.3784 80.8678 42.4539 80.8677 42.5293C80.8562 43.2514 80.7388 44.8346 80.6715 45.4332C80.4352 47.7249 80.902 43.4323 80.8287 44.1378C80.64 46.5617 80.2304 48.968 79.6035 51.3166C79.8421 51.4558 81.2266 42.1929 81.0077 42.2653C80.9865 43.0262 80.9432 43.7973 80.8785 44.5579C80.9173 44.2195 80.9518 43.8796 80.9821 43.5384C80.979 43.6327 80.9757 43.727 80.9719 43.8212C80.8893 45.1095 80.7444 46.3979 80.5373 47.6752C81.1486 43.7802 81.0642 41.948 81.1589 41C81.1607 41.1075 81.1621 41.2148 81.1631 41.3221C81.1552 42.1779 80.9172 46.202 80.4804 48.3041C80.5841 47.8784 80.8502 46.0136 80.8916 45.6158C80.9068 45.5036 80.8703 45.8966 80.905 45.6367C81.0258 44.9605 81.2022 42.0497 81.185 42.4739C81.2487 42.7495 80.8122 47.4255 80.5684 48.3202C80.9748 46.2104 81.2027 44.0009 81.2662 41.8484C81.2552 43.2047 81.2569 44.4197 80.9137 46.8856C80.8791 47.6503 81.4356 42.4007 81.364 42.2783C81.3447 43.1844 81.2941 44.1061 81.2137 45.0099C81.2867 44.2458 81.3386 43.4683 81.368 42.6998C81.371 42.6977 81.3741 42.6955 81.3771 42.6934C81.3022 44.6954 81.1366 46.5185 80.7024 48.774C80.7356 48.7075 80.9798 47.3518 81.0652 46.6947ZM70.7546 14.8966C70.7756 14.9383 70.2323 14.3215 69.9144 13.9848C69.9602 14.0372 70.0058 14.0897 70.0514 14.1424C69.3916 13.4065 68.07 12.1264 67.9983 12.1035C67.4797 11.6269 67.7221 11.8232 67.5562 11.668C67.4918 11.6067 66.7991 11.0022 66.2406 10.5227C66.1059 10.4111 65.9706 10.3005 65.8345 10.1908C65.8031 10.1759 65.7716 10.1611 65.7401 10.1463C65.5564 9.98601 65.3711 9.82737 65.1842 9.67036C67.2016 11.2276 69.069 12.9796 70.7521 14.8938C70.753 14.8947 70.7538 14.8957 70.7546 14.8966ZM49.2081 2.28144C48.3043 2.07838 46.898 1.85137 47.1783 1.91918C47.7595 2.00912 48.3364 2.11171 48.909 2.22666C49.0079 2.24437 49.1085 2.2628 49.2081 2.28144ZM7.30428 61.7917C7.69576 62.4622 8.09603 63.0534 8.78914 64.0328C8.79201 64.0288 8.79487 64.0248 8.79774 64.0208C8.49963 63.6309 7.77468 62.5562 7.30428 61.7917ZM80.2912 35.5274C80.3129 35.6969 80.3334 35.8666 80.3529 36.0367C80.2387 35.3489 80.2407 35.2286 80.1119 34.4482C80.1039 34.4013 80.101 34.4186 80.0982 34.4022C80.066 34.2121 80.042 34.0354 80.0108 33.8643C79.9498 33.5339 79.8943 33.2699 79.7711 32.6863C79.6742 32.2362 79.6822 32.2302 79.6462 32.0727C79.6188 31.9377 79.2684 30.62 79.0265 29.7769C78.6587 28.1461 80.3826 34.9895 80.2912 35.5274ZM80.6413 40.4598C80.639 40.2943 80.6357 40.129 80.6314 39.964C80.659 40.4596 80.6394 39.4594 80.5945 38.7258C80.6176 38.7512 80.677 40.2966 80.6727 41C80.6634 40.8195 80.653 40.6394 80.6413 40.4598ZM75.04 20.5982C75.3721 21.1521 75.2973 21.0713 75.2792 21.0506C75.1757 20.873 75.0707 20.6963 74.9645 20.5205C74.9897 20.5464 75.0149 20.5722 75.04 20.5982ZM77.2875 24.9052C77.198 24.7244 76.6008 23.4561 76.2884 22.868C76.2748 22.8424 76.3665 23.0005 76.1485 22.5841C76.0885 22.4564 75.3908 21.2543 75.5655 21.5069C76.1934 22.6108 76.7682 23.745 77.2867 24.9035C77.287 24.904 77.2873 24.9046 77.2875 24.9052ZM77.8319 26.2136C77.7294 25.9699 77.6247 25.728 77.5172 25.4864C77.4696 25.3579 77.4213 25.2298 77.3724 25.1019C77.4947 25.3773 77.6138 25.6539 77.7294 25.9311C77.7639 26.0251 77.7981 26.1193 77.8319 26.2136ZM66.0408 71.8043C65.9887 71.8378 65.9366 71.8711 65.8844 71.9043C65.6995 72.0541 64.7991 72.7848 65.0934 72.5656C65.4132 72.3165 65.729 72.0627 66.0408 71.8043ZM69.6491 68.4996C69.8186 68.328 69.9866 68.1549 70.1531 67.9802C70.333 67.7687 70.5106 67.5555 70.6858 67.3405C69.8837 68.2388 68.9669 69.1342 69.1376 69.0125C68.9431 69.2079 68.7465 69.4013 68.548 69.5926C68.7043 69.4201 68.6819 69.4422 68.1516 69.931C68.0503 70.0534 67.4993 70.5564 66.8541 71.1155C67.3259 70.7116 67.788 70.2969 68.2406 69.8714C68.243 69.8739 68.2454 69.8765 68.2478 69.879C67.2309 70.8193 68.5186 69.6755 69.1399 69.0202C69.1934 68.9731 69.2467 68.9259 69.2999 68.8785C69.4171 68.7529 69.5335 68.6266 69.6491 68.4996ZM1.69997 35.3115C1.67218 35.4804 1.64546 35.6497 1.61981 35.8194C1.58293 36.4836 1.6989 35.1394 1.90554 34.1914C1.82034 34.4995 2.08514 33.055 2.10682 32.9745C2.0638 33.138 2.0219 33.3014 1.98094 33.4655C1.87314 34.0764 1.7786 34.6973 1.69997 35.3115ZM1.27274 40.1561C1.29005 39.8879 1.28055 40.3342 1.28317 41C1.28332 41.8133 1.32528 42.9276 1.35873 43.4702C1.37157 43.7092 1.39031 44.1345 1.40652 44.3056C1.41971 44.4092 1.43329 44.5127 1.44727 44.6159C1.43248 44.7378 1.6636 46.6458 1.80624 47.3855C1.81184 47.4568 1.81764 47.528 1.82363 47.5992C1.87138 47.8707 1.92188 48.1412 1.9751 48.4108C1.96298 48.3779 1.9509 48.345 1.93885 48.3121C1.98378 48.5153 2.03025 48.7179 2.07825 48.9198C2.25263 49.7193 2.11699 49.2327 2.25942 49.8307C2.42276 50.4935 2.19145 49.3992 2.21077 49.416C2.08527 48.8739 1.85049 47.6432 1.76916 47.083C1.7243 46.7635 1.78403 47.1265 1.58379 45.7504C1.55358 45.4473 1.52643 45.1395 1.50347 44.8384C1.44091 44.2847 1.38972 43.7272 1.35017 43.1663C1.35267 43.0607 1.35566 42.9569 1.35904 42.8527C1.35245 42.7947 1.29795 41.5025 1.29721 41.5706C1.29953 41.4215 1.30101 41.2276 1.30362 41C1.30975 40.4248 1.32584 39.6431 1.3704 38.8348C1.37186 38.7251 1.37376 38.6156 1.3761 38.506C1.32483 39.6044 1.35187 38.8551 1.32678 39.1809C1.31235 39.3681 1.28342 39.944 1.27274 40.1561ZM59.7002 76.0456C61.302 75.1362 60.3249 75.7244 62.0277 74.6935C61.9042 74.7583 61.7804 74.8224 61.6563 74.8859C60.8374 75.4202 59.4101 76.1705 59.6985 76.0465C59.699 76.0462 59.6996 76.0459 59.7002 76.0456ZM73.9721 63.0828C73.3828 63.9552 73.704 63.5357 72.9232 64.6181C72.9229 64.6186 72.9225 64.6191 72.9221 64.6196C73.3338 64.0661 73.732 63.5007 74.1145 62.9263C74.0671 62.9786 74.0197 63.0308 73.9721 63.0828ZM19.5818 74.4238C18.7389 73.869 18.8998 73.9854 18.1568 73.4491C17.0373 72.6703 17.9756 73.3424 17.9657 73.3566C18.2227 73.5334 18.4819 73.7072 18.7431 73.878C19.361 74.3135 18.761 73.9215 18.7603 73.9223C18.7608 73.9226 18.7614 73.923 18.7619 73.9233C18.7589 73.9276 18.7376 73.9156 18.9768 74.0796C19.1775 74.1961 19.3792 74.3109 19.5818 74.4238ZM16.066 71.914C16.3443 72.1207 16.4717 72.2098 15.772 71.6289C15.7715 71.6285 15.771 71.6281 15.7705 71.6277C15.6959 71.6033 15.0415 71.025 14.7442 70.761C14.6641 70.6941 14.5842 70.6269 14.5046 70.5594C15.0129 71.0241 15.5341 71.4762 16.066 71.914ZM6.28313 60.3531C6.30748 60.3353 6.68194 61.0012 6.1826 60.0483C6.08157 59.8651 5.98268 59.6824 5.88483 59.4982C5.8152 59.3802 5.74613 59.2617 5.67767 59.1429C4.57496 56.7359 4.08982 56.0932 6.16103 60.0601C6.16135 60.0607 6.16168 60.0612 6.162 60.0618C6.20198 60.159 6.24236 60.2561 6.28313 60.3531ZM8.79548 64.2837C8.82779 64.3018 8.8601 64.3199 8.89243 64.3379C9.20705 64.8315 9.6863 65.4182 10.3958 66.3186C10.4656 66.3955 10.5357 66.4722 10.6062 66.5486C10.8306 66.9228 13.7533 69.9553 13.1421 69.2763C12.8639 68.9915 12.2511 68.3782 12.2013 68.3225C12.0281 68.1382 11.8122 67.8885 11.5257 67.5722C11.3599 67.3897 11.0029 67.0113 10.6779 66.6263C9.94254 65.7724 8.72533 64.1169 7.88391 62.8987C7.82898 62.8074 7.77441 62.7158 7.72022 62.624C7.1261 61.7011 7.30662 62.0181 6.79635 61.1341C6.32904 60.5912 9.0185 64.589 8.43088 63.7762C8.43124 63.7767 8.4316 63.7772 8.43197 63.7777C8.55185 63.9474 8.67303 64.116 8.79548 64.2837ZM33.7686 80.0581C33.8298 80.0881 35.0938 80.2754 34.7928 80.2575C35.2065 80.3112 35.6172 80.3578 36.0319 80.3985C36.0291 80.3952 36.0263 80.3918 36.0236 80.3885C35.6126 80.3395 35.2058 80.2845 34.7963 80.2226C34.7955 80.2177 34.7946 80.2129 34.7938 80.208C34.1753 80.1528 31.663 79.6133 31.7469 79.5989C31.6119 79.5738 31.4771 79.5481 31.3424 79.5216C30.154 79.2023 29.134 78.9232 27.8745 78.4652C27.7749 78.4364 27.6753 78.4073 27.5759 78.3777C27.514 78.3505 27.4523 78.3232 27.3906 78.2957C26.9319 78.1276 26.4765 77.9511 26.0256 77.7666C24.5491 77.1797 27.3978 78.3759 27.7628 78.4705C27.8099 78.4865 27.8063 78.4734 28.1009 78.5729C28.6163 78.7786 31.585 79.6489 32.5305 79.8103C32.5369 79.8199 32.5433 79.8295 32.5497 79.8391C32.9571 79.919 33.3613 79.9915 33.7686 80.0581ZM3.82423 54.9836C3.80727 54.9153 3.79049 54.8469 3.77389 54.7786C3.35004 53.6536 3.13997 52.9219 3.20601 53.2258C3.20621 53.2264 3.20641 53.227 3.2066 53.2276C3.39912 53.8192 3.60405 54.4018 3.82423 54.9836ZM53.6341 3.35163C53.6101 3.32687 53.0629 3.13384 52.3487 2.93364C52.3816 2.94838 52.4146 2.96316 52.4475 2.97798C52.8197 3.07812 53.2827 3.23498 54.4084 3.63158C54.4112 3.62389 54.4139 3.61619 54.4167 3.60849C54.157 3.52023 53.8961 3.4346 53.6341 3.35163ZM4.1999 55.953C4.32575 56.2971 4.76437 57.2319 4.49624 56.6083C4.29323 56.1314 4.13135 55.7686 4.1999 55.953ZM76.1098 59.5385C75.9812 59.7779 75.85 60.0162 75.7161 60.2535C75.6533 60.3809 75.5898 60.508 75.5256 60.6347C75.5259 60.6341 75.5262 60.6336 75.5265 60.633C75.7267 60.2712 75.9215 59.9055 76.1098 59.5385ZM22.5636 76.1588C21.7471 75.7309 20.9435 75.2733 20.1583 74.7891C20.148 74.7881 20.1378 74.7871 20.1276 74.7861C20.9239 75.2571 21.2405 75.4507 21.427 75.5595C21.4262 75.5591 21.4254 75.5586 21.4246 75.5581C22.026 75.9035 22.6059 76.2156 23.1895 76.515C22.9795 76.398 22.7709 76.2793 22.5636 76.1588ZM25.409 77.5432C25.2803 77.4486 25.0856 77.3834 23.7965 76.7965C23.8453 76.8244 23.8941 76.8521 23.9431 76.8798C24.6072 77.1928 25.0052 77.3548 24.8798 77.3187C25.0556 77.3947 25.2319 77.4696 25.409 77.5432ZM13.4323 69.5812C13.5435 69.7113 14.544 70.62 14.4958 70.5635C14.4693 70.5494 13.2032 69.3408 13.4323 69.5812ZM62.8291 7.8253C62.5707 7.65209 62.3101 7.48184 62.0473 7.31456C62.4004 7.53149 62.7498 7.75383 63.0955 7.98144C63.0069 7.92905 62.9181 7.87699 62.8291 7.8253ZM65.6261 9.79061C65.796 9.9334 65.2193 9.50017 66.2447 10.3417C65.4996 9.72828 64.7313 9.14112 63.9436 8.58339C64.3158 8.8416 64.6829 9.1056 65.0465 9.37664C64.9886 9.32215 64.9305 9.26781 64.8722 9.21362C65.1259 9.403 65.3772 9.59535 65.6261 9.79061ZM66.4183 10.4606C66.0416 10.0996 68.1161 11.8916 68.2834 12.0873C68.3245 12.1267 68.5089 12.3252 68.5779 12.397C68.2801 12.1099 67.9778 11.8273 67.6712 11.5495C67.7703 11.6464 67.8689 11.7437 67.9669 11.8415C67.6103 11.514 67.2482 11.1934 66.88 10.8791C67.0403 11.0101 67.1996 11.1423 67.3579 11.2757C67.049 10.9992 66.7358 10.7275 66.4183 10.4606ZM57.1146 4.67706C57.431 4.81825 57.7452 4.96345 58.0572 5.1126C57.9983 5.07551 57.9393 5.03857 57.8802 5.00176C57.6927 4.91367 57.5044 4.82702 57.3153 4.74179C57.2484 4.72004 57.1815 4.69846 57.1146 4.67706ZM63.28 8.09106C62.8428 7.83891 61.7352 7.02107 63.0623 7.92662C63.195 8.01916 63.3216 8.11476 63.28 8.09106ZM69.018 12.8054C69.7965 13.5511 69.5834 13.419 68.8766 12.6882C68.8409 12.6516 68.9592 12.7498 69.018 12.8054ZM74.1362 19.0375C74.1831 19.1112 74.2558 19.2453 74.7166 19.9397C74.7876 20.0576 74.858 20.1758 74.9279 20.2945C74.7729 20.0101 73.2268 17.7347 73.4495 18.0422C73.6931 18.3859 73.8957 18.6747 74.1362 19.0375ZM72.6484 16.8214C72.3963 16.4929 72.1392 16.1684 71.8772 15.848C71.9584 15.9578 72.0391 16.068 72.1193 16.1787C71.9909 16.0207 71.8613 15.8638 71.7306 15.7079C71.5179 15.4323 71.3014 15.1593 71.0815 14.8892C71.6733 15.5678 72.2417 16.2656 72.7866 16.9827C72.7407 16.9288 72.6946 16.8751 72.6484 16.8214ZM64.859 9.08975C65.4917 9.57496 66.2673 10.1683 67.2412 11.0217C67.2416 11.0221 67.2421 11.0225 67.2426 11.023C67.291 11.0656 67.3713 11.1476 67.526 11.2861C67.6841 11.3761 70.1781 13.8254 69.9579 13.6592C69.0164 12.6892 68.6553 12.3355 68.3995 12.134C68.3566 12.0835 68.3136 12.0332 68.2704 11.983C67.3271 11.0881 67.0229 10.8718 66.4596 10.4081C66.4652 10.4058 66.4707 10.4036 66.4763 10.4014C66.1022 10.0889 65.7227 9.78343 65.3374 9.48473C65.3896 9.52953 65.4417 9.57446 65.4937 9.61952C65.3579 9.51334 65.2213 9.40803 65.0841 9.30359C64.7592 9.03644 64.3321 8.71862 64.859 9.08975ZM73.7469 18.344C74.0276 18.615 76.0009 21.7894 76.7182 23.3376C76.3033 22.5446 75.6553 21.3194 75.1486 20.4862C74.1579 18.8807 74.8306 19.9981 74.6568 19.7294C74.5722 19.5957 74.0089 18.6874 73.7469 18.344ZM62.4641 7.4373C63.2521 7.94929 63.6912 8.24174 64.3425 8.72881C64.2857 8.69124 64.2287 8.65381 64.1717 8.61653C63.9568 8.43767 62.0667 7.17936 62.4641 7.4373ZM77.7461 25.613C77.0378 23.9393 77.3604 24.777 76.9897 23.9087C77.2579 24.4683 77.5137 25.036 77.7558 25.609C77.7525 25.6103 77.7493 25.6117 77.7461 25.613ZM4.89396 57.9151C5.2166 58.6085 5.60224 59.3748 5.83216 59.7699C5.58908 59.3105 5.35475 58.8458 5.12937 58.376C5.04965 58.2223 4.97147 58.0693 4.89396 57.9151ZM1.2272 36.6156C1.20261 36.792 1.14802 37.4802 1.14321 37.5535C1.13177 37.6887 1.12972 37.6514 1.12815 37.6532C1.06074 38.5398 1.13778 37.7226 1.0955 38.3799C1.0825 38.4951 1.00124 40.0317 1.00557 40.6648C1.00477 40.7767 1.0044 40.8888 1.00447 41C1.004 41.8534 1.03558 42.6429 1.05165 42.9604C1.07959 43.5735 1.17043 44.6969 1.2906 45.6954C1.33974 46.1062 1.34848 46.2505 1.40606 46.6611C1.69429 49.3183 3.15562 54.3897 4.14987 56.5405C4.37578 57.0806 4.59506 57.5935 4.72676 57.8729C4.83398 58.0919 4.94276 58.309 5.05429 58.5266C5.34851 59.2184 5.49643 59.4251 5.88399 60.1332C6.13294 60.5828 6.2431 60.7962 6.27706 60.8563C6.50526 61.2527 6.62603 61.4431 6.81279 61.7493C7.02245 62.0941 7.32901 62.5855 7.4088 62.7055C7.46165 62.7767 7.30325 62.5426 8.18673 63.8325C9.09765 65.1389 10.0718 66.3778 11.149 67.5882C10.8277 67.1511 10.4979 66.822 10.0765 66.3119C9.96389 66.175 10.0411 66.257 9.94352 66.1375C9.66658 65.8008 9.14904 65.145 8.93644 64.853C8.70631 64.5386 8.79927 64.6356 8.50471 64.2389C8.48987 64.2188 8.52965 64.2875 8.46096 64.1937C7.77816 63.2445 7.57035 62.9236 6.79655 61.664C6.18166 60.8846 3.63923 55.5037 3.66664 55.2714C3.23873 54.2988 5.73476 60.0418 6.21271 60.6217C6.33859 60.845 6.19836 60.6156 6.31271 60.8193C6.36107 60.9061 6.8177 61.669 7.29317 62.4098C7.85319 63.3134 9.08881 65.0599 9.73168 65.8447C15.1551 72.6661 22.7391 77.6031 31.1894 79.7283C31.3691 79.773 31.6071 79.8252 32.1972 79.9589C35.0591 80.6035 38.0209 80.9336 40.9999 80.9337C49.4866 80.9725 58.0693 78.1314 64.8373 73.0441C66.8351 71.5535 68.6739 69.8866 70.3831 68.0419C70.5894 67.8075 70.7927 67.571 70.9933 67.332C70.4768 67.9404 69.451 68.9832 69.3539 69.074C69.3199 69.1078 69.1138 69.3293 68.7633 69.6685C68.2697 70.1445 68.0408 70.3401 67.9999 70.3787C67.8714 70.4966 67.9607 70.4249 67.8375 70.5371C66.9167 71.3705 66.1771 71.986 65.274 72.682C64.2493 73.4624 63.7021 73.8206 62.93 74.352C62.8382 74.4056 62.7461 74.4587 62.6539 74.5115C62.1061 74.9569 58.4666 77.0143 56.8867 77.6284C56.3958 77.8395 56.4778 77.7913 56.3127 77.8608C56.2053 77.9008 56.261 77.9135 54.9543 78.4082C54.2945 78.651 54.1174 78.6983 53.7841 78.8127C53.6027 78.8738 53.6354 78.8736 53.3738 78.9593C51.8602 79.4482 50.6038 79.7758 49.076 80.0919C48.648 80.1784 48.6414 80.1696 48.5455 80.1885C48.1932 80.2557 47.5749 80.3861 46.6692 80.5155C45.2005 80.7521 42.2793 80.9407 40.9999 80.9085C40.9776 80.9084 40.9558 80.9083 40.9345 80.9081C40.7522 80.9069 40.6015 80.8958 40.4678 80.8942C40.2654 80.8917 40.186 80.8998 40.1505 80.8992C39.4753 80.8824 39.8816 80.8841 39.4304 80.8708C39.1876 80.8621 38.9346 80.8646 38.3663 80.8297C37.6185 80.7797 37.7675 80.7738 37.4563 80.7494C37.4235 80.7465 37.4126 80.7561 37.1078 80.7273C35.9445 80.6228 34.2713 80.3757 33.1925 80.1548C32.8839 80.0932 32.6514 80.0391 32.2204 79.9427C31.331 79.8342 26.5073 78.2904 26.1497 78.0575C26.1094 78.0405 26.531 78.1963 25.8671 77.9277C25.6724 77.8542 25.4791 77.7794 25.2846 77.7024C24.9677 77.5564 24.6532 77.4063 24.3412 77.2524C24.3346 77.2986 22.4919 76.3983 22.5314 76.3678C22.3336 76.2628 22.137 76.1563 21.9409 76.0479C21.5207 75.8427 21.2505 75.688 20.4695 75.2375C20.3527 75.1591 20.2362 75.08 20.12 75.0003C20.0874 74.9857 20.0548 74.9711 20.0222 74.9564C19.6247 74.6832 18.9514 74.2716 18.8723 74.2173C18.5657 74.0132 18.341 73.8497 18.1991 73.751C17.6655 73.3867 16.5389 72.5572 15.958 72.0752C15.9306 72.0528 15.9642 72.0665 15.7987 71.9301C15.5012 71.6828 15.4609 71.6714 15.0799 71.3227C14.9976 71.2585 14.9156 71.194 14.8338 71.1291C14.7519 71.0547 14.6703 70.98 14.5891 70.9049C14.0992 70.4736 13.6195 70.03 13.1511 69.5752C13.5913 69.9741 13.103 69.4964 12.6392 69.047C12.4822 68.8949 12.6104 69.0408 12.558 68.9901C12.4674 68.938 10.4975 66.7677 10.3989 66.5967C10.3072 66.4926 10.2159 66.388 10.1253 66.283C10.0863 66.2244 10.0475 66.1656 10.0088 66.1067C9.95871 66.0489 9.90879 65.9909 9.85903 65.9328C9.3805 65.339 8.19511 63.7542 8.00393 63.449C7.89844 63.2887 8.01369 63.4188 7.50831 62.6525C7.48408 62.6302 7.45986 62.6079 7.43567 62.5856C7.3207 62.4094 7.20708 62.2322 7.09483 62.054C6.88539 61.7183 6.6051 61.2173 6.60462 61.1962C6.53706 61.093 6.46994 60.9893 6.4033 60.8854C6.24607 60.5928 5.39998 59.0442 5.08826 58.4034C5.00247 58.2135 4.91876 58.0242 4.8362 57.8335C4.712 57.5837 4.59031 57.3323 4.47116 57.0794C4.21012 56.4867 4.4942 57.1092 4.43997 56.9823C4.3169 56.716 3.7425 55.3475 3.8055 55.4272C3.73218 55.2382 3.66027 55.0484 3.58976 54.858C3.54688 54.7624 3.50449 54.667 3.46255 54.5716C3.36952 54.2366 3.14958 53.6742 2.79989 52.4901C2.76483 52.3927 2.73014 52.2951 2.69581 52.1973C2.59649 51.8288 2.50235 51.4583 2.41345 51.086C2.38472 51.0122 2.35624 50.9385 2.32809 50.8651C2.28599 50.7049 2.24486 50.5444 2.2047 50.3834C2.14474 50.0515 1.99073 49.4645 1.93708 49.1592C1.86056 48.715 1.93657 49.0556 2.12253 49.8706C2.10606 49.8087 1.61973 47.3716 1.55794 46.7993C1.5605 46.8371 1.5631 46.8749 1.56575 46.9127C1.65426 47.4924 1.75607 48.0727 1.86984 48.6461C1.92536 49.1359 1.6316 47.5704 1.52993 46.8448C1.52062 46.7788 1.44746 46.4082 1.36227 45.6745C1.32509 45.3886 1.2413 44.2816 1.2303 44.069C1.13095 42.3527 1.16416 43.6154 1.13069 41.9388C1.123 42.2069 1.11087 41.7052 1.11267 41C1.11326 40.7843 1.11528 40.5503 1.11836 40.3147C1.11383 40.1413 1.15437 38.6994 1.16637 38.5978C1.2033 37.987 1.17369 38.6517 1.23459 37.7703C1.23842 37.6642 1.24266 37.5582 1.24731 37.4522C1.26535 37.2476 1.28478 37.0447 1.30602 36.8396C1.48201 35.5993 1.50594 35.3143 1.56596 34.875C1.59232 34.6972 1.56589 34.9271 1.63806 34.4669C1.66611 34.2939 1.68798 34.1002 1.77302 33.6376C2.0508 32.1922 2.20482 31.7145 2.5161 30.395C2.57689 30.1959 2.63917 29.9975 2.70295 29.7998C2.73552 29.6633 2.7688 29.5271 2.80279 29.3911C3.14011 28.3725 3.00843 28.7364 3.1284 28.3677C3.43653 27.3923 4.22382 25.4487 4.32115 25.2918C4.63204 24.4615 5.12961 23.53 5.28589 23.218C5.37412 23.0307 5.46378 22.8442 5.55486 22.6584C5.67096 22.4447 5.78893 22.2321 5.90875 22.0209C5.81583 22.1052 6.46216 21.0214 6.52786 20.9205C6.58959 20.7958 7.59478 19.138 8.01302 18.5502C8.4147 17.9512 9.17096 16.9507 9.2409 16.8645C9.31615 16.7619 10.0573 15.7857 10.6851 15.0603C11.1683 14.3636 14.7358 10.9026 14.5318 11.143C14.2854 11.3549 13.9402 11.6634 13.6476 11.9364C12.6152 12.6653 7.9007 18.2561 7.06481 19.9499C5.0811 23.1191 3.49717 26.7261 2.50029 30.3469C2.44146 30.5602 2.4234 30.5902 2.37444 30.7739C2.29842 31.0537 2.13402 31.7617 2.07197 32.0393C1.82921 33.0751 1.6059 34.3387 1.52232 34.9043C1.33327 36.1528 1.23989 37.0248 1.16537 37.978C1.1376 38.2795 1.06132 39.7912 1.05982 40.8373C1.05882 40.8915 1.05792 40.9457 1.05714 41C1.05518 41.1355 1.05389 41.2708 1.05327 41.406C1.05159 41.3004 1.0498 41.161 1.04887 41C1.0422 40.3397 1.06775 39.3311 1.09792 38.8076C1.15108 37.8328 1.21126 37.3317 1.24534 36.9759C1.26873 36.6736 1.44602 35.1514 1.56833 34.4603C1.60382 34.2457 1.62155 34.2035 1.65354 34.0204C1.82376 33.0297 2.11278 31.7294 2.32674 30.8844C2.22977 31.2271 2.83569 29.0827 2.88583 28.9762C2.9464 28.7849 3.00295 28.5742 3.1337 28.1866C3.39053 27.443 3.37156 27.5447 3.7018 26.6168C3.79491 26.3918 3.89 26.1678 3.98703 25.945C3.9445 25.9128 5.22988 23.117 5.64137 22.3451C5.60865 22.3015 3.89993 25.9193 3.8262 26.2446C3.07232 28.0764 2.23778 30.8931 1.86038 32.7777C1.7291 33.3381 1.41365 35.1354 1.40424 35.2691C1.37364 35.4877 1.41083 35.2916 1.39781 35.386C1.15466 37.3265 1.26639 36.3584 1.2272 36.6156ZM66.4977 10.3623C66.0433 9.9822 65.5807 9.61243 65.1096 9.25273C65.1474 9.27411 65.1851 9.29555 65.2229 9.31706C65.4371 9.48398 65.6496 9.65302 65.8602 9.82415C66.0255 9.9516 66.1897 10.0804 66.3529 10.2104C66.4013 10.2609 66.4496 10.3115 66.4977 10.3623ZM67.6186 11.2988C68.0024 11.6406 68.0109 11.6687 68.0978 11.7493C68.3561 11.9913 68.5814 12.1987 68.8274 12.4385C68.5251 12.1818 67.9196 11.5965 67.6186 11.2988ZM58.8773 5.32615C58.981 5.37977 59.6565 5.75341 60.4391 6.15844C61.01 6.48835 61.5702 6.83091 62.1239 7.18862C61.1875 6.57666 59.8226 5.84266 59.3355 5.59555C59.151 5.49981 59.12 5.47324 58.9718 5.3979C58.1163 4.96211 57.2587 4.60491 57.1815 4.53583C58.006 4.9112 58.7455 5.25786 58.8773 5.32615ZM63.8331 8.29618C63.9549 8.38957 64.0761 8.48361 64.1967 8.57831C63.7469 8.25591 63.2896 7.94228 62.8272 7.63914C62.956 7.7155 63.0845 7.79259 63.2125 7.8704C63.4205 8.01024 63.6277 8.15236 63.8331 8.29618ZM23.3258 5.21272C23.6328 5.0609 23.9406 4.91364 24.2505 4.77018C24.2313 4.77326 23.8775 4.93897 23.7467 4.99875C23.7472 4.99848 23.7478 4.9982 23.7484 4.99793C23.6024 5.06423 23.661 5.02823 23.3974 5.15428C23.3735 5.17374 23.3496 5.19321 23.3258 5.21272ZM71.281 67.0331C71.7291 66.6564 74.8297 62.3612 74.512 62.6919C74.3894 62.8827 73.3718 64.3807 73.0437 64.8014C72.6248 65.3879 71.3785 66.8772 71.281 67.0331ZM76.5164 59.2795C76.569 59.2041 74.9433 62.0838 74.7411 62.341C74.78 62.2843 74.8412 62.1978 74.8908 62.1207C75.1447 61.7525 76.1998 59.918 76.5164 59.2795ZM8.76915 17.3804C8.93421 17.1708 9.1015 16.9626 9.27081 16.7561C9.21884 16.8048 9.16699 16.8536 9.11524 16.9026C8.99858 17.0612 8.8833 17.2204 8.76915 17.3804ZM1.06142 41.621C1.12588 46.0612 1.93431 50.5006 3.45683 54.6742C3.31874 54.3094 3.18582 53.9419 3.05815 53.5719C1.84215 49.9359 1.15723 45.8644 1.05635 42.1704C1.05681 41.9875 1.05849 41.8044 1.06142 41.621ZM57.773 4.73479C56.7379 4.2578 55.8586 3.89913 54.6981 3.45822C55.8129 3.85685 56.3431 4.09615 57.4015 4.54575C57.4021 4.54601 57.4027 4.54628 57.4033 4.54654C57.5269 4.60868 57.6502 4.67143 57.773 4.73479ZM32.9316 1.8649C33.2682 1.78752 33.6061 1.71446 33.946 1.64565C33.535 1.71884 33.1291 1.79767 32.7197 1.8839C32.7903 1.87738 32.861 1.87104 32.9316 1.8649ZM18.925 74.3488C19.9115 75.0204 22.5521 76.5523 23.4475 76.9329C23.5046 76.9584 22.9901 76.7 23.8359 77.0893C23.1996 76.79 22.7574 76.563 22.7044 76.5517C22.5209 76.4518 22.3384 76.3506 22.1567 76.2479C21.8504 76.0879 21.5442 75.9227 21.2415 75.7543C21.2813 75.7605 21.2556 75.75 20.7914 75.4898C20.5839 75.3639 20.3781 75.2365 20.1727 75.1067C20.0819 75.058 19.9912 75.0089 19.9008 74.9594C19.7266 74.8414 19.5534 74.722 19.3813 74.6013C18.6907 74.1619 19.0998 74.447 18.925 74.3488ZM15.5746 71.8622C15.6692 72.0575 20.1921 75.2393 18.1494 73.7753C17.6137 73.4023 17.088 73.0167 16.571 72.6178C16.9685 72.9875 15.5941 71.8569 15.489 71.7552C14.9527 71.3066 14.279 70.7242 13.9076 70.3785C13.5876 70.082 13.4061 69.897 13.1856 69.6839C12.4281 68.9638 11.3096 67.7491 11.149 67.5882C11.6892 68.1949 12.2567 68.7951 12.857 69.3895C13.4953 70.014 14.0442 70.5804 15.3419 71.6458C15.659 71.9137 15.5367 71.8295 15.5746 71.8622ZM34.9776 1.47783C34.9352 1.4905 37.0288 1.22308 37.043 1.22746C37.0484 1.22122 36.3618 1.29424 36.2647 1.30567C36.264 1.30575 36.2634 1.30582 36.2628 1.3059C36.222 1.31009 36.4275 1.27811 36.1063 1.31466C35.7283 1.3638 35.3521 1.41822 34.9776 1.47783ZM65.3354 72.7164C65.6519 72.6505 70.4469 68.2331 70.4828 67.9982C70.5169 67.9588 70.4644 68.0092 70.4763 67.9923C69.4682 69.1307 67.8919 70.6136 66.7829 71.5355C66.4751 71.7941 66.5714 71.722 66.5542 71.7369C66.5534 71.7375 66.5527 71.7381 66.5519 71.7387C66.3786 71.8876 65.5644 72.5175 65.3354 72.7164ZM25.3483 77.7926C25.0943 77.6812 24.8416 77.5672 24.5904 77.4507C24.524 77.4272 24.4576 77.4035 24.3913 77.3796C24.3918 77.3798 24.3924 77.3801 24.393 77.3804C24.7093 77.5218 25.0278 77.6593 25.3483 77.7926ZM34.5381 80.473C34.472 80.4581 34.406 80.443 34.3401 80.4278C33.6506 80.3116 32.971 80.1786 32.2872 80.0261C32.3564 80.0391 32.4257 80.0519 32.495 80.0646C31.4649 79.8316 31.0444 79.7317 30.4997 79.5842C30.5003 79.5844 30.5009 79.5846 30.5015 79.5848C30.4432 79.5686 30.3746 79.5414 30.1582 79.4805C29.6604 79.3483 28.2537 78.896 28.084 78.8405C27.7147 78.7541 30.5524 79.641 31.1005 79.7487C31.3424 79.8109 31.6332 79.889 31.7815 79.924C31.944 79.9623 32.1675 80.0047 32.5659 80.0909C32.6839 80.121 33.9708 80.3893 34.5381 80.473ZM46.8041 80.5618C46.5909 80.5841 46.1477 80.6523 45.9835 80.6706C45.9443 80.6751 46.2476 80.6296 45.8785 80.673C45.7747 80.691 45.6708 80.7085 45.5667 80.7257C45.9812 80.6774 46.3937 80.6227 46.8041 80.5618ZM38.4991 1.09518C38.4372 1.09305 37.3081 1.18118 37.2553 1.19129C36.5815 1.26311 38.9169 1.07329 38.4991 1.09518ZM65.2844 9.2114C64.9448 8.80215 69.6163 12.8632 69.9441 13.3873C69.9165 13.3722 68.8923 12.3163 69.4199 12.8782C68.9214 12.3369 67.4216 10.9638 67.0526 10.6593C66.8336 10.4688 66.7856 10.412 66.7524 10.3832C66.626 10.2651 65.4299 9.32414 65.2844 9.2114ZM73.2201 17.305C72.8741 16.8304 72.5171 16.3625 72.1505 15.9034C72.5871 16.4419 73.0106 16.9927 73.4186 17.5529C73.3527 17.47 73.2866 17.3873 73.2201 17.305ZM73.6586 17.8999C73.6685 17.8703 74.7791 19.5278 75.0459 19.9804C74.7141 19.4899 74.1991 18.65 73.6586 17.8999ZM46.0077 1.2899C45.0944 1.17063 44.6944 1.1775 45.8105 1.28175C45.8444 1.28501 46.0458 1.2951 46.0077 1.2899ZM19.1268 74.5585C19.2512 74.6546 20.9082 75.688 21.0157 75.7279C21.3356 75.8872 20.2248 75.2531 19.8674 75.013C19.2912 74.6292 20.1481 75.1771 18.7321 74.2582C18.792 74.2928 18.852 74.3272 18.9121 74.3614C18.0929 73.8096 18.3446 74.0135 18.1954 73.9174C18.1493 73.8884 17.646 73.5292 17.5552 73.4644C16.4092 72.6702 18.9893 74.5034 19.1268 74.5585ZM23.8247 4.83825C22.1752 5.63591 22.8832 5.28813 21.2364 6.19404C21.1775 6.21541 23.6017 4.92703 23.8247 4.83825ZM6.81687 61.8503C7.81227 63.4622 8.70726 64.7415 9.82712 66.1083C9.70046 66.0579 6.50191 61.472 6.81687 61.8503ZM78.3468 55.5287C75.6947 62.4133 70.3466 69.4348 63.8492 73.8725C63.1451 74.3591 63.0678 74.3892 62.8102 74.5606C62.6407 74.6715 62.6754 74.6601 62.4484 74.805C55.9178 78.965 48.4262 81.0484 40.9999 81.0392C39.0745 81.0391 37.166 80.9037 35.2669 80.6305C34.6807 80.5739 31.877 80.0073 31.2853 79.8608C30.8295 79.7767 32.8335 80.2354 33.172 80.2876C33.4237 80.3373 33.4327 80.349 33.601 80.3808C33.7798 80.4139 33.6333 80.3799 33.8411 80.4176C34.7244 80.5775 35.6874 80.7179 36.4946 80.8066C37.9961 80.9735 39.4956 81.0552 40.9999 81.0547C47.3773 81.0543 53.6532 79.5519 59.3386 76.6187C60.1855 76.1765 60.0126 76.2702 60.0558 76.2489C60.0563 76.2486 60.0569 76.2483 60.0574 76.248C64.582 73.8328 69.1668 70.0183 72.5051 65.7326C74.8726 62.7313 76.8096 59.3888 78.2306 55.8401C78.2698 55.7365 78.3085 55.6327 78.3468 55.5287ZM15.8741 72.1563C16.2296 72.4742 16.3166 72.5383 17.6909 73.5552C17.807 73.632 17.9236 73.7082 18.0405 73.7838C17.2996 73.2654 16.576 72.7217 15.8718 72.1545C15.8726 72.1551 15.8733 72.1557 15.8741 72.1563ZM25.5334 77.9383C25.7682 78.1223 29.3712 79.4308 31.0568 79.8117C31.3635 79.8818 28.9491 79.2277 28.3931 79.0167C28.112 78.9274 26.6266 78.3884 25.5201 77.9281C25.5245 77.9315 25.529 77.9349 25.5334 77.9383ZM59.8794 5.65586C59.6335 5.52565 59.3862 5.39793 59.1374 5.27274C59.7563 5.59275 60.3665 5.92882 60.968 6.28086C60.0058 5.72281 59.0222 5.20592 58.0172 4.73027C58.2082 4.8104 58.3982 4.8919 58.5886 4.97537C59.0236 5.19462 59.4539 5.42151 59.8794 5.65586ZM56.6246 4.10348C58.4114 4.88236 56.5411 4.07704 56.0941 3.89346C55.8274 3.77824 56.4423 4.02488 56.6246 4.10348ZM51.8551 2.41455C52.736 2.63285 54.4767 3.22635 53.8481 3.04587C52.9194 2.72215 52.3173 2.53969 50.9391 2.17276C51.1415 2.2184 51.3452 2.26604 51.5474 2.315C51.5484 2.31526 51.5493 2.31551 51.5502 2.31576C51.6521 2.3483 51.7537 2.38123 51.8551 2.41455ZM57.4477 4.44326C58.6085 4.97098 55.2233 3.49793 56.2938 3.94502C56.3449 3.9611 57.4041 4.4184 57.4477 4.44326ZM74.6621 62.7893C74.7386 62.6561 74.201 63.4757 74.0117 63.7425C73.2097 64.9086 72.0982 66.3456 71.1213 67.447C71.1969 67.366 71.2722 67.2846 71.3471 67.2028C72.5513 65.8097 73.66 64.334 74.6621 62.7893ZM67.8921 70.7242C67.1427 71.4027 66.3674 72.0532 65.569 72.6734C65.495 72.7316 65.1489 73.007 65.4112 72.8087C66.2659 72.1474 67.0938 71.4517 67.8921 70.7242ZM11.2081 67.8173C11.7194 68.4006 10.2165 66.7482 10.3145 66.7965C10.6067 67.1419 10.9046 67.4822 11.2081 67.8173ZM6.87432 62.0609C7.13279 62.4733 7.39854 62.8806 7.67134 63.2826C7.66878 63.2851 7.66621 63.2876 7.66364 63.2901C7.39331 62.8855 7.13014 62.4757 6.87432 62.0609ZM76.6631 59.3551C76.4202 59.8087 75.8314 60.8889 75.4342 61.5434C75.7174 61.0988 76.3314 59.998 76.6631 59.3551ZM20.1036 75.227C20.0404 75.2098 22.7304 76.7209 21.7906 76.2131C21.2195 75.8977 20.6575 75.5691 20.1036 75.227ZM25.6771 78.0771C25.0656 77.8262 24.5985 77.6104 24.7283 77.6548C25.0486 77.7979 25.3722 77.9372 25.6951 78.0713C25.6891 78.0732 25.6831 78.0752 25.6771 78.0771ZM48.4948 1.60163C47.398 1.39548 46.2976 1.2359 45.1842 1.12155C45.2259 1.12233 45.2675 1.12317 45.3092 1.12408C46.3816 1.23755 47.4431 1.39319 48.5006 1.59202C48.4986 1.59522 48.4967 1.59842 48.4948 1.60163ZM76.9761 58.8063C77.3151 58.1174 77.6326 57.4226 77.9316 56.715C77.628 57.4214 77.3061 58.1147 76.9627 58.8018C76.9669 58.8039 76.9711 58.8059 76.9753 58.808C76.9756 58.8074 76.9758 58.8068 76.9761 58.8063ZM62.6251 7.17355C59.7277 5.37265 63.4628 7.61202 64.1574 8.19375C64.1582 8.19429 64.159 8.19482 64.1598 8.19536C64.2228 8.24261 64.0809 8.1548 64.1855 8.23394C63.9052 8.0295 63.6217 7.82832 63.3361 7.6312C63.0701 7.45978 62.8021 7.29147 62.532 7.12629C62.4453 7.06837 62.3583 7.01078 62.2712 6.9535C62.3895 7.02625 62.5075 7.0996 62.6251 7.17355ZM72.7418 16.4069C74.5858 18.8896 72.7158 16.3359 71.729 15.1655C71.7433 15.168 72.5719 16.1778 72.7418 16.4069ZM67.1625 10.5477C66.7915 10.2317 66.4148 9.92249 66.0328 9.62038C65.986 9.57925 65.9392 9.53822 65.8922 9.49729C66.1874 9.72713 66.479 9.96075 66.7679 10.1989C66.9003 10.3143 67.0318 10.4306 67.1625 10.5477ZM53.2901 2.72148C52.5401 2.48771 51.5803 2.2031 53.9808 2.97216C53.9807 2.96842 53.9806 2.96467 53.9805 2.96093C53.8854 2.92872 53.6047 2.8386 53.5894 2.83352C53.5457 2.81843 53.6015 2.8234 53.2901 2.72148ZM75.9998 21.1195C76.0429 21.1962 76.107 21.2166 76.5095 22.0429C76.6424 22.2862 76.7728 22.5311 76.9007 22.7775C76.9259 22.8451 76.951 22.9128 76.9758 22.9806C76.4956 22.0199 76.4167 21.9339 76.3816 21.8645C76.2094 21.5518 76.3436 21.7796 76.2326 21.5775C75.9507 21.053 75.2498 19.8996 75.5852 20.4123C75.7065 20.5967 75.9556 21.0431 75.9998 21.1195ZM74.9315 19.3109C74.9993 19.4222 74.7631 19.075 74.8137 19.1595C74.8627 19.2304 75.5359 20.3369 75.3353 20.0487C75.225 19.8669 75.1134 19.686 75.0003 19.5061C74.966 19.4426 74.9316 19.3792 74.8969 19.3158C74.782 19.1451 74.6658 18.9754 74.5484 18.8066C74.3682 18.5111 73.9642 17.892 74.465 18.612C74.2848 18.345 74.1009 18.0796 73.9143 17.8169C73.8131 17.6839 73.7112 17.5516 73.6086 17.42C73.6672 17.4855 73.7256 17.5512 73.7839 17.6171C74.1807 18.172 74.5634 18.7369 74.9315 19.3109ZM79.2213 28.308C79.2045 28.2722 79.1876 28.2365 79.1707 28.2007C79.5665 29.3199 80.0403 31.0991 79.7364 30.0973C79.3016 28.5581 78.7718 27.0387 78.1547 25.5618C78.1171 25.4623 78.0793 25.3634 78.0407 25.2637C78.4867 26.3715 78.4013 26.0078 78.7567 26.9878C78.8131 27.1537 78.6259 26.682 79.0078 27.7142C78.9993 27.6756 78.9907 27.6371 78.9821 27.5985C79.064 27.8341 79.1437 28.0706 79.2213 28.308ZM81.1644 38.269C81.0125 36.2489 81.2137 38.4699 81.2088 38.8493C81.2088 38.8487 81.2087 38.848 81.2087 38.8474C81.2238 39.8734 81.1236 37.6675 81.0979 37.5359C81.0808 37.3578 81.0248 36.9481 80.9468 35.9752C81.0414 36.7404 81.1135 37.5012 81.1644 38.269ZM80.1906 31.7316C80.2303 31.8971 80.2019 31.807 80.2187 31.8786C80.2188 31.8792 80.219 31.8798 80.2191 31.8804C80.4909 32.9361 80.9082 35.4814 80.9039 35.7629C80.8446 34.9638 80.1306 31.4358 80.0569 31.2325C80.1025 31.3984 80.147 31.5648 80.1906 31.7316ZM77.7271 24.5188C77.467 23.9048 78.0857 25.2733 78.2218 25.6413C78.2484 25.7107 77.9967 25.1544 77.7271 24.5188ZM36.1762 1.00204C34.7226 1.19486 36.6348 0.961471 35.9748 1.05845C36.2525 1.02268 36.531 0.989741 36.8105 0.959659C36.5987 0.972149 36.3873 0.986277 36.1762 1.00204ZM1.55418 49.3507C1.62392 49.6864 1.5986 49.5256 1.60485 49.5548C1.65209 49.7748 1.69241 49.983 1.71248 50.0669C2.09746 51.612 1.85706 50.5806 1.85374 50.5652C1.85408 50.5306 1.962 50.9344 1.83512 50.3693C1.75071 50.028 1.67064 49.6849 1.59499 49.3401C1.56337 49.1673 1.53316 48.9957 1.50408 48.824C1.36188 48.141 1.53158 49.0379 1.54142 49.1415C1.54439 49.1818 1.40621 48.5383 1.55418 49.3507ZM33.5742 1.37066C33.3429 1.42796 32.7771 1.55947 33.3397 1.46403C33.3404 1.46391 33.341 1.46379 33.3416 1.46367C33.4456 1.44578 33.869 1.36914 34.0003 1.35064C34.9292 1.17574 34.5668 1.20713 33.5742 1.37066ZM0.714932 43.0895C0.689536 42.5244 0.675787 41.9569 0.673867 41.3865C0.682787 41.3961 0.691711 41.4057 0.700638 41.4153C0.701337 41.7203 0.705425 42.0245 0.712867 42.328C0.720337 42.4342 0.728217 42.5403 0.736508 42.6463C0.731468 42.2701 0.731586 41.8929 0.736919 41.5147C0.733449 41.3434 0.73105 41.1718 0.729726 41C0.72753 40.7149 0.728297 40.4305 0.731998 40.1467C0.722996 40.3556 0.715585 40.565 0.709778 40.7748C0.718515 39.6607 0.736529 39.9035 0.783041 38.9891C0.790343 38.6741 0.80141 38.3575 0.816039 38.0429C0.857309 37.5879 0.905759 37.1386 0.962317 36.6852C1.04292 35.9217 1.04873 35.855 0.977964 36.3664C1.01078 35.9859 1.0802 35.5744 1.14199 35.1216C1.1471 35.0842 1.12684 35.1531 1.13154 35.12C1.49492 32.7726 1.54788 32.9164 1.61614 32.5417C1.6689 32.2786 1.89708 31.2372 1.89815 31.2204C1.90307 31.1988 1.30835 33.3414 2.18711 29.9744C1.66494 31.6987 1.31213 33.7203 1.60847 32.4282C1.46256 32.98 1.05911 35.4576 1.0554 35.6164C1.02355 35.8472 1.02133 35.7644 0.984971 36.0545C0.967355 36.226 0.923619 36.6841 0.794977 38.0414C0.787004 38.216 0.780142 38.3908 0.774399 38.5658C0.760817 38.729 0.748114 38.8946 0.736601 39.0561C0.738826 38.7199 0.745477 38.3796 0.756164 38.0425C0.683864 39.2257 0.642581 40.2147 0.653561 41C0.655063 41.1045 0.657524 41.205 0.661009 41.3012C0.664528 42.0068 0.677144 42.3468 0.655673 42.0455C0.661043 42.2566 0.668034 42.4674 0.676634 42.6777C0.688714 42.8152 0.701468 42.9522 0.714932 43.0895ZM29.3926 2.40635C28.7223 2.59473 28.4915 2.70637 28.5957 2.67318C29.1829 2.49235 29.7416 2.31058 29.3926 2.40635ZM1.32814 48.1046C1.20042 47.343 1.09537 46.5827 1.01171 45.8167C1.00243 45.8178 0.993159 45.8189 0.983887 45.82C1.07689 46.5854 1.19123 47.3446 1.32814 48.1046ZM36.3872 0.956298C36.4585 0.955212 36.5299 0.954312 36.6013 0.953599C37.4375 0.835885 38.2736 0.815184 38.6916 0.784775C38.7821 0.778095 38.5983 0.775666 38.4256 0.783983C38.315 0.779566 36.5382 0.92658 36.3872 0.956298ZM68.6703 11.6987C68.4386 11.4863 68.2044 11.2766 67.9679 11.0697C67.9861 11.0755 68.0043 11.0813 68.0225 11.0871C68.1386 11.1901 68.2542 11.2939 68.3692 11.3982C68.4701 11.4979 68.5704 11.598 68.6703 11.6987ZM65.958 9.37053C65.5187 9.02262 65.0717 8.68348 64.6186 8.35433C66.337 9.6258 64.9379 8.56731 65.9722 9.35258C65.9675 9.35856 65.9627 9.36455 65.958 9.37053ZM61.2833 6.16334C61.3451 6.194 61.407 6.22483 61.4687 6.25581C61.9508 6.54046 62.429 6.83639 62.8994 7.14127C62.6107 6.9347 62.3189 6.73172 62.0241 6.53241C61.8483 6.42492 61.6724 6.31919 61.4953 6.21454C61.4246 6.19726 61.3539 6.1802 61.2833 6.16334ZM7.34349 63.2592C7.52602 63.5445 8.2155 64.5041 8.19277 64.4576C7.91277 64.0557 7.63934 63.6475 7.37457 63.2362C7.36553 63.2395 7.35648 63.2428 7.34743 63.2461C7.31308 63.1858 7.27887 63.1254 7.24483 63.0649C7.08926 62.8338 6.93601 62.601 6.78509 62.3664C6.71744 62.2429 6.65046 62.119 6.58412 61.9948C6.5024 61.8791 6.4217 61.7635 6.34133 61.6471C7.02455 62.8073 7.02841 62.7509 7.17748 62.9877C7.25495 63.1068 7.29967 63.1849 7.32502 63.2285C7.33117 63.2387 7.33732 63.2489 7.34349 63.2592ZM1.17952 47.589C1.44396 49.1753 1.67811 50.0679 1.94543 51.197C1.73317 50.4836 0.799784 45.7482 0.794067 44.0411C0.773938 43.8658 0.754929 43.6902 0.737049 43.5141C0.801082 44.44 0.85265 45.0704 0.9004 45.5234C0.939199 45.8805 0.943248 45.842 0.946154 45.8693C0.946309 45.8706 0.946461 45.8719 0.946617 45.8732C1.04696 46.7072 1.07947 46.9588 1.17952 47.589ZM37.571 0.804472C37.1413 0.827337 36.3888 0.910289 36.3821 0.928501C36.8028 0.885285 37.2193 0.849149 37.6381 0.819273C37.5519 0.82227 37.6446 0.800228 37.571 0.804472ZM60.7395 5.79968C60.4487 5.62757 59.7443 5.25657 60.0403 5.43097C60.0938 5.46051 60.7942 5.83504 60.3741 5.63253C61.0504 6.00711 60.9047 5.89735 60.7395 5.79968ZM5.93953 21.0695C6.0795 20.8228 6.222 20.5778 6.36699 20.3344C6.39523 20.2744 6.42363 20.2145 6.45218 20.1546C6.27741 20.4572 6.10651 20.7622 5.93953 21.0695ZM41.2157 0.650109C41.5942 0.683866 42.2404 0.662611 42.9425 0.722744C43.202 0.73525 43.4659 0.750505 43.7266 0.768128C43.7273 0.768171 43.7279 0.768214 43.7286 0.768257C43.7362 0.760002 43.7439 0.751749 43.7516 0.743498C42.9014 0.685837 42.0671 0.655227 41.2157 0.650109ZM0.784179 37.8331C0.801758 37.6593 0.820439 37.4859 0.840213 37.3128C0.863424 37.0043 0.890365 36.6939 0.920993 36.3833C0.898528 36.5504 0.877066 36.7181 0.856671 36.8858C0.828874 37.2006 0.804698 37.5164 0.784179 37.8331ZM45.802 0.929587C44.8909 0.82276 44.545 0.81712 45.7107 0.942952C46.2007 1.00089 46.7526 1.05281 45.802 0.929587ZM19.7934 75.3186C19.5281 75.1515 19.265 74.9815 19.004 74.8085C18.9114 74.7552 18.8191 74.7015 18.727 74.6474C19.0788 74.8765 19.4343 75.1003 19.7934 75.3186ZM64.3972 8.12594C64.3639 8.10938 64.3305 8.09286 64.2972 8.0764C64.0699 7.91386 63.8409 7.7536 63.6101 7.59568C63.6716 7.63033 63.733 7.66514 63.7943 7.70012C63.9966 7.84027 64.1976 7.98222 64.3972 8.12594ZM18.0331 74.1596C17.8279 74.0159 17.6242 73.8703 17.4219 73.7229C17.2838 73.6268 17.1464 73.5298 17.0096 73.432C17.1961 73.5737 17.3839 73.7138 17.5729 73.8524C17.7256 73.9558 17.879 74.0583 18.0331 74.1596ZM54.2342 2.87001C53.906 2.74373 52.559 2.33411 53.7626 2.73124C54.5254 2.99309 54.2833 2.88932 54.2342 2.87001ZM56.0134 3.52758C54.7674 3.03269 55.6912 3.43069 57.175 4.02621C55.6919 3.39837 56.0846 3.56225 56.0134 3.52758ZM66.1823 9.41617C66.2085 9.43736 66.2246 9.46182 66.4337 9.63168C67.1889 10.241 68.1439 11.0947 68.6466 11.5729C69.93 12.6509 73.2515 16.5444 73.5234 17.0888C73.5923 17.1924 73.4082 16.9728 73.4375 17.014C73.5256 17.1331 74.03 17.8219 73.9269 17.7015C73.4428 17.0183 72.9371 16.3497 72.4115 15.6979C72.5477 15.8521 72.6828 16.0074 72.8168 16.1638C71.5083 14.5371 71.9297 15.0844 71.5297 14.6368C71.3046 14.3645 71.076 14.095 70.8438 13.8286C70.3198 13.265 69.78 12.7165 69.2252 12.184C69.3538 12.3019 69.4817 12.4206 69.6089 12.5401C68.7936 11.7163 69.015 11.9499 68.5455 11.5238C68.5485 11.5186 68.5516 11.5135 68.5546 11.5083C67.7242 10.7578 67.5638 10.6105 67.3806 10.4484C66.9962 10.125 66.4861 9.74177 64.9965 8.53987C64.3272 8.08951 64.3786 8.04873 63.9704 7.80449C62.8631 7.00232 65.0104 8.4685 65.9626 9.24922C65.9631 9.24962 65.9636 9.25001 65.9641 9.25041C66.0368 9.30806 65.9255 9.21133 66.1823 9.41617ZM60.3286 5.56249C61.0765 5.91767 58.181 4.40516 59.1216 4.94099C59.2647 5.01465 59.4073 5.08914 59.5494 5.16444C59.8113 5.29466 60.0711 5.42741 60.3303 5.56342C60.3297 5.56311 60.3291 5.56281 60.3286 5.56249ZM30.5828 1.97803C27.6787 2.82464 29.3329 2.35735 30.3147 2.06376C30.5113 2.0065 30.6188 1.97358 30.5828 1.97803ZM1.59377 49.8497C1.60698 49.8921 1.62026 49.9345 1.6336 49.9768C1.39027 48.9866 1.08573 47.0524 1.07261 47.0796C1.21462 48.0127 1.38691 48.9287 1.59377 49.8497ZM0.614565 41.8945C0.614996 42.1133 0.646813 43.0007 0.652645 42.8929C0.64144 42.5088 0.635601 42.1235 0.635192 41.7371C0.627902 41.5572 0.621788 41.377 0.616859 41.1965C0.616159 41.4487 0.613355 41.8355 0.614565 41.8945Z" fill="black"/>
<path d="M24.824 60.176C23.832 60.176 22.888 60.032 21.992 59.744C21.096 59.488 20.328 58.912 19.688 58.016C20.008 56.48 20.392 54.832 20.84 53.072C21.32 51.28 21.832 49.456 22.376 47.6C22.92 45.712 23.464 43.872 24.008 42.08C24.584 40.256 25.128 38.56 25.64 36.992C26.152 35.424 26.616 34.048 27.032 32.864C27.448 31.68 27.768 30.784 27.992 30.176C28.088 29.92 28.248 29.552 28.472 29.072C28.696 28.56 28.968 28.048 29.288 27.536C29.608 27.024 29.976 26.592 30.392 26.24C30.808 25.856 31.256 25.664 31.736 25.664C32.184 25.664 32.632 25.824 33.08 26.144C32.088 28.448 31.08 30.992 30.056 33.776C29.064 36.56 28.104 39.44 27.176 42.416C26.248 45.36 25.4 48.24 24.632 51.056C23.864 53.872 23.224 56.432 22.712 58.736C23.16 58.8 23.528 58.848 23.816 58.88C24.136 58.912 24.456 58.928 24.776 58.928C26.824 58.928 28.792 58.448 30.68 57.488C32.6 56.56 34.376 55.28 36.008 53.648C37.672 51.984 39.128 50.096 40.376 47.984C41.624 45.84 42.584 43.584 43.256 41.216C43.96 38.816 44.312 36.432 44.312 34.064C44.312 31.472 43.896 29.344 43.064 27.68C42.232 25.984 41.08 24.736 39.608 23.936C38.136 23.136 36.424 22.736 34.472 22.736C32.392 22.736 30.52 23.152 28.856 23.984C27.192 24.816 25.88 25.936 24.92 27.344C23.96 28.752 23.48 30.336 23.48 32.096C23.48 32.48 23.496 32.816 23.528 33.104C23.592 33.392 23.656 33.648 23.72 33.872C22.664 33.872 21.912 33.616 21.464 33.104C21.048 32.56 20.84 31.92 20.84 31.184C20.84 30.064 21.224 28.944 21.992 27.824C22.792 26.672 23.88 25.616 25.256 24.656C26.664 23.696 28.28 22.928 30.104 22.352C31.928 21.744 33.864 21.44 35.912 21.44C38.792 21.44 41.096 22.032 42.824 23.216C44.584 24.368 45.864 25.936 46.664 27.92C47.464 29.904 47.864 32.128 47.864 34.592C47.864 37.376 47.432 40.048 46.568 42.608C45.704 45.136 44.504 47.472 42.968 49.616C41.464 51.728 39.736 53.584 37.784 55.184C35.832 56.752 33.736 57.968 31.496 58.832C29.288 59.728 27.064 60.176 24.824 60.176Z" fill="black"/>
<path d="M48.296 69.176C46.824 69.048 45.912 68.648 45.56 67.976C45.208 67.304 45.032 66.44 45.032 65.384C45.032 64.232 45.272 62.824 45.752 61.16C46.232 59.464 46.824 57.624 47.528 55.64C48.264 53.656 49 51.672 49.736 49.688C49.352 49.72 48.936 49.768 48.488 49.832C48.072 49.864 47.544 49.928 46.904 50.024C46.264 50.088 45.432 50.2 44.408 50.36C44.472 49.528 44.776 48.888 45.32 48.44C45.896 47.96 46.648 47.608 47.576 47.384C48.504 47.16 49.544 47.032 50.696 47C51.592 44.536 52.504 42.136 53.432 39.8C54.392 37.432 55.336 35.272 56.264 33.32C55.944 33.288 55.624 33.272 55.304 33.272C55.016 33.24 54.712 33.224 54.392 33.224C52.344 33.224 50.76 33.432 49.64 33.848C48.52 34.264 47.752 34.904 47.336 35.768C46.92 36.632 46.712 37.736 46.712 39.08C46.712 39.784 46.76 40.44 46.856 41.048C46.952 41.624 47.112 42.232 47.336 42.872C46.248 42.68 45.448 42.264 44.936 41.624C44.424 40.952 44.168 40.12 44.168 39.128C44.168 37.464 44.76 36.008 45.944 34.76C47.128 33.48 48.712 32.488 50.696 31.784C52.712 31.048 54.936 30.68 57.368 30.68C59.064 30.68 60.696 30.808 62.264 31.064C63.864 31.288 65.416 31.4 66.92 31.4C67.592 31.4 68.2 31.368 68.744 31.304C69.32 31.208 69.896 31.08 70.472 30.92C69.288 32.264 68.296 33.16 67.496 33.608C66.696 34.056 65.88 34.28 65.048 34.28C64.312 34.28 63.352 34.184 62.168 33.992C61.016 33.768 59.704 33.592 58.232 33.464C57.816 34.52 57.352 35.8 56.84 37.304C56.328 38.776 55.8 40.36 55.256 42.056C54.712 43.72 54.168 45.384 53.624 47.048C55.224 47.144 56.728 47.288 58.136 47.48C59.576 47.672 60.872 47.784 62.024 47.816C61.768 48.2 61.464 48.504 61.112 48.728C60.792 48.92 60.328 49.064 59.72 49.16C59.112 49.256 58.264 49.336 57.176 49.4C56.12 49.432 54.696 49.464 52.904 49.496C52.712 50.168 52.472 50.968 52.184 51.896C51.896 52.824 51.64 53.704 51.416 54.536C51.192 55.368 51.016 55.976 50.888 56.36C50.184 58.824 49.576 61.128 49.064 63.272C48.584 65.416 48.328 67.384 48.296 69.176Z" fill="black"/>
</svg>
